<?xml version="1.0" encoding="utf-8"?>
<!-- Generator: Adobe Illustrator 26.2.1, SVG Export Plug-In . SVG Version: 6.00 Build 0)  -->
<svg version="1.1" id="Camada_1" xmlns="http://www.w3.org/2000/svg" xmlns:xlink="http://www.w3.org/1999/xlink" x="0px" y="0px"
	 viewBox="0 0 500 500" style="enable-background:new 0 0 500 500;" xml:space="preserve">
<style type="text/css">
	.st0{fill:#92E3A9;}
	.st1{fill:#DCA2E0;}
	.st2{opacity:0.2;fill:#263238;enable-background:new    ;}
	.st3{opacity:0.2;enable-background:new    ;}
	.st4{fill:#FFFFFF;stroke:#263238;stroke-miterlimit:10;}
	.st5{fill:#263238;stroke:#FFFFFF;stroke-miterlimit:10;}
	.st6{fill:#7B297F;}
	.st7{opacity:0.2;}
	.st8{fill:#FFFFFF;}
	.st9{fill:#263238;}
	.st10{clip-path:url(#SVGID_00000012445475066494424260000005297842239430382266_);}
	.st11{opacity:0.5;fill:#DCA2E0;enable-background:new    ;}
	.st12{opacity:0.5;}
	.st13{fill:none;}
	.st14{fill:none;stroke:#263238;stroke-miterlimit:10;}
	.st15{clip-path:url(#SVGID_00000159431429461084969500000013304243906549100417_);}
	.st16{fill:none;stroke:#263238;stroke-linecap:round;stroke-linejoin:round;}
	.st17{fill:#FFFFFF;stroke:#263238;stroke-linecap:round;stroke-linejoin:round;}
	.st18{fill:#757575;stroke:#263238;stroke-linecap:round;stroke-linejoin:round;}
	.st19{fill:#999999;stroke:#263238;stroke-linecap:round;stroke-linejoin:round;}
	.st20{fill:#BFBFBF;stroke:#263238;stroke-linecap:round;stroke-linejoin:round;}
	.st21{opacity:0.5;fill:#FFFFFF;enable-background:new    ;}
	.st22{opacity:0.1;fill:#FFFFFF;enable-background:new    ;}
	.st23{clip-path:url(#SVGID_00000147181221686453202150000001933173828336634813_);}
</style>
<path class="st0" d="M481.7,245.8c0,9.6-1.1,19.2-3.3,28.5c-0.8,3.1-1.6,6.1-2.7,9.1c-0.3,0.9-0.6,1.7-0.9,2.6
	c-0.3,0.7-0.5,1.4-0.8,2.1l-0.2,0.6c-0.3,0.7-0.6,1.4-0.9,2.1l-0.1,0.4c-0.3,0.7-0.6,1.4-0.9,2.1l-0.4,0.9c-0.3,0.6-0.6,1.2-0.9,1.8
	s-0.6,1.3-1,1.9c-0.1,0.2-0.2,0.5-0.4,0.7l-0.9,1.6l-0.7,1.3c-1.1,2-2.2,3.9-3.3,5.8c-0.5,0.8-1,1.6-1.4,2.3
	c-0.1,0.2-0.2,0.4-0.4,0.6c-0.6,0.9-1.1,1.8-1.7,2.6c-0.5,0.7-0.9,1.4-1.4,2.1l-1.3,1.9l-0.3,0.4c-0.4,0.6-0.9,1.3-1.4,1.9
	c-0.6,0.8-1.1,1.6-1.7,2.3c-0.1,0.2-0.2,0.3-0.4,0.5c-0.6,0.9-1.3,1.8-2,2.6c-0.4,0.5-0.8,1-1.2,1.6c-0.7,1-1.5,1.9-2.2,2.8
	s-1.4,1.8-2.2,2.7l-0.2,0.3c-0.7,0.9-1.4,1.8-2.2,2.6c-0.2,0.3-0.4,0.5-0.7,0.8c-0.7,0.8-1.4,1.6-2,2.4c-2,2.3-3.9,4.6-5.9,6.9
	c-4.1,4.7-8.2,9.3-12.4,13.9c-3.5,3.8-7.1,7.6-10.7,11.3c-17.4,17.9-36.3,34.6-56.8,47.9c-2.5,1.6-5.1,3.3-7.7,4.8l-2.9,1.7
	l-0.5,0.3c-1,0.6-2,1.1-3,1.6s-2,1.1-3,1.6l-1.4,0.7c-2,1-4,2-6,3c-1.1,0.5-2.2,1-3.3,1.5s-2,0.9-3,1.4l-1.2,0.5
	c-0.9,0.4-1.9,0.8-2.8,1.2c-1.8,0.7-3.6,1.4-5.5,2.1l-2.1,0.8l-1.2,0.4l-2,0.6l-1.7,0.5h-0.1c-1.1,0.4-2.3,0.7-3.4,1
	c-1.8,0.5-3.6,1-5.4,1.5c-1.2,0.3-2.4,0.6-3.6,0.9s-2.3,0.5-3.4,0.7l-0.3,0c-1.2,0.2-2.4,0.5-3.6,0.7l-1.8,0.3l-1.8,0.3
	c-0.5,0.1-1.1,0.2-1.7,0.2l-2,0.3c-7.1,0.9-14.2,1.3-21.4,1.2h-1.3c-6.5-0.1-12.9-0.6-19.4-1.5l-1.4-0.2l-2.4-0.3l-1.9-0.3
	c-2.7-0.4-5.3-0.9-8-1.4c-0.6-0.1-1.2-0.2-1.8-0.4c-1.8-0.4-3.6-0.8-5.3-1.2c-1.2-0.3-2.4-0.6-3.6-0.9l-1.8-0.5l-1.8-0.5
	c-2.4-0.6-4.7-1.3-7-2c-2.7-0.8-5.4-1.7-8.1-2.6l-2.9-1c-3-1.1-6-2.2-9-3.4l-1.6-0.7l-1.3-0.6L181,430c-1.9-0.9-4-1.9-6.3-3.1
	l-1.2-0.6c-1.4-0.7-2.8-1.5-4.3-2.3c-3.1-1.7-6.5-3.6-10-5.7c-40-23.5-101.3-67.7-115.6-84.5c-0.7-0.9-1.4-1.7-2.2-2.6
	c-0.5-0.7-1.1-1.4-1.6-2.1s-1-1.3-1.4-1.9s-0.8-1.1-1.2-1.7s-0.8-1.1-1.1-1.6l-0.1-0.1c-0.5-0.7-0.9-1.3-1.3-2s-0.8-1.3-1.2-2
	c-0.2-0.3-0.4-0.6-0.6-1c-0.4-0.7-0.9-1.5-1.3-2.2l0,0c-0.5-0.8-0.9-1.6-1.4-2.5c-0.8-1.5-1.5-2.9-2.2-4.4l-0.5-1.1
	c-1.4-3-2.7-6.1-3.7-9.3c-0.4-1.1-0.7-2.2-1.1-3.3c-0.4-1.4-0.8-2.9-1.2-4.3c-0.1-0.3-0.1-0.6-0.2-0.9c-0.2-0.8-0.4-1.5-0.5-2.3
	c-0.2-1.1-0.4-2.1-0.6-3.2c0-0.3-0.1-0.5-0.1-0.8c-0.1-0.5-0.2-1.1-0.2-1.7s-0.2-1.3-0.2-2c0-0.2,0-0.5-0.1-0.7
	c-0.1-0.6-0.1-1.1-0.1-1.7c0,0,0-0.1,0-0.1c0-0.7-0.1-1.4-0.1-2c0-0.1,0-0.1,0-0.2c0-0.7,0-1.4-0.1-2.1v-2c0-1,0-2.1,0.1-3.1
	c0-0.7,0.1-1.4,0.1-2c0.1-1.3,0.3-2.7,0.5-4c0.1-0.7,0.2-1.4,0.3-2c0.2-1.3,0.5-2.7,0.9-4c0.9-3.5,2-6.9,3.5-10.2
	c1.1-2.5,2.3-5,3.6-7.3c0.1-0.2,0.2-0.4,0.3-0.6c5.4-9.5,12.7-17.9,21-25.7c0.9-0.8,1.8-1.7,2.7-2.5s1.9-1.7,2.9-2.6l0.2-0.2
	c1.5-1.3,3.1-2.7,4.7-4c2.5-2.1,4.9-4.1,7.5-6.1l0.2-0.2c2.2-1.7,4.3-3.4,6.5-5.1c3.4-2.6,6.8-5.2,10.2-7.9l2.6-2.1
	c1-0.8,1.9-1.5,2.9-2.3c8.5-6.9,16.5-14.5,23.9-22.6c1.4-1.5,2.8-3.1,4.1-4.6c0.7-0.7,1.3-1.5,1.9-2.2c9.1-10.4,17.6-20.9,27.1-30.8
	c2.3-2.4,4.6-4.7,6.9-7c2-1.9,4-3.8,6.1-5.6c2.4-2.3,4.8-4.4,7.4-6.4c3.6-2.8,7.3-5.4,11.3-7.9c1-0.6,2-1.2,2.9-1.8
	c99.7-62,173.1-41.7,222.1,0c3.7,3.2,7.3,6.4,10.7,9.8c2.1,2,4.1,4.1,6,6.2c0.2,0.2,0.4,0.4,0.6,0.7c1.4,1.5,2.7,2.9,4,4.4l1.1,1.3
	c0.6,0.7,1.1,1.3,1.7,2s1.4,1.6,2,2.4l1.3,1.6c2.7,3.4,5.3,6.8,7.8,10.2c0.5,0.7,1,1.4,1.5,2.1c3.4,4.8,6.6,9.6,9.5,14.5l1.2,2.1
	c0.4,0.7,0.8,1.4,1.2,2.1l1.2,2.1c0.4,0.7,0.8,1.4,1.2,2.1l1.1,2c0.4,0.7,0.8,1.4,1.1,2l1.1,2c0.4,0.7,0.7,1.4,1.1,2l1,2l1,2
	c1.3,2.7,2.6,5.3,3.7,7.8c0.6,1.3,1.2,2.6,1.7,3.9c2.5,5.7,4.6,11.2,6.4,16.3c0,0,0,0,0,0.1c0.2,0.5,0.3,1,0.5,1.4s0.3,1,0.5,1.5
	s0.2,0.8,0.4,1.1c0.2,0.6,0.4,1.1,0.5,1.7s0.4,1.2,0.5,1.8c0.3,1.1,0.6,2.2,1,3.4c0.3,0.9,0.5,1.9,0.8,2.9c0,0.2,0.1,0.4,0.1,0.5
	s0.1,0.3,0.1,0.4c0.1,0.6,0.3,1.1,0.4,1.7c0.4,1.5,0.7,3,1,4.5c0.2,0.8,0.3,1.6,0.5,2.4l0.1,0.5c0.2,0.8,0.3,1.5,0.4,2.3
	c0.2,1,0.4,2.1,0.5,3.1c0.1,0.8,0.2,1.6,0.4,2.4c0,0.1,0,0.2,0,0.4c0.1,0.5,0.1,1,0.2,1.6s0.1,0.9,0.2,1.3c0.2,1.6,0.3,3.2,0.5,4.8
	l0.1,1.1l0.1,1.8c0,0.7,0.1,1.3,0.1,2c0,0.5,0,1,0.1,1.6c0,0.8,0,1.5,0.1,2.3S481.7,244.9,481.7,245.8z"/>
<g>
	<path class="st1" d="M481.7,245.8c0,9.6-1.1,19.2-3.3,28.5c-0.8,3.1-1.6,6.1-2.7,9.1c-0.3,0.9-0.6,1.7-0.9,2.6
		c-0.3,0.7-0.5,1.4-0.8,2.1l-0.2,0.6c-0.3,0.7-0.6,1.4-0.9,2.1l-0.1,0.4c-0.3,0.7-0.6,1.4-0.9,2.1l-0.4,0.9
		c-0.3,0.6-0.6,1.2-0.9,1.8s-0.6,1.3-1,1.9c-0.1,0.2-0.2,0.5-0.4,0.7l-0.9,1.6l-0.7,1.3c-1.1,2-2.2,3.9-3.3,5.8
		c-0.5,0.8-1,1.6-1.4,2.3c-0.1,0.2-0.2,0.4-0.4,0.6c-0.6,0.9-1.1,1.8-1.7,2.6c-0.5,0.7-0.9,1.4-1.4,2.1l-1.3,1.9l-0.3,0.4
		c-0.4,0.6-0.9,1.3-1.4,1.9c-0.6,0.8-1.1,1.6-1.7,2.3c-0.1,0.2-0.2,0.3-0.4,0.5c-0.6,0.9-1.3,1.8-2,2.6c-0.4,0.5-0.8,1-1.2,1.6
		c-0.7,1-1.5,1.9-2.2,2.8s-1.4,1.8-2.2,2.7l-0.2,0.3c-0.7,0.9-1.4,1.8-2.2,2.6c-0.2,0.3-0.4,0.5-0.7,0.8c-0.7,0.8-1.4,1.6-2,2.4
		c-2,2.3-3.9,4.6-5.9,6.9c-4.1,4.7-8.2,9.3-12.4,13.9c-3.5,3.8-7.1,7.6-10.7,11.3c-17.4,17.9-36.3,34.6-56.8,47.9
		c-2.5,1.6-5.1,3.3-7.7,4.8l-2.9,1.7l-0.5,0.3c-1,0.6-2,1.1-3,1.6s-2,1.1-3,1.6l-1.4,0.7c-2,1-4,2-6,3c-1.1,0.5-2.2,1-3.3,1.5
		s-2,0.9-3,1.4l-1.2,0.5c-0.9,0.4-1.9,0.8-2.8,1.2c-1.8,0.7-3.6,1.4-5.5,2.1l-2.1,0.8l-1.2,0.4l-2,0.6l-1.7,0.5h-0.1
		c-1.1,0.4-2.3,0.7-3.4,1c-1.8,0.5-3.6,1-5.4,1.5c-1.2,0.3-2.4,0.6-3.6,0.9s-2.3,0.5-3.4,0.7l-0.3,0c-1.2,0.2-2.4,0.5-3.6,0.7
		l-1.8,0.3l-1.8,0.3c-0.5,0.1-1.1,0.2-1.7,0.2l-2,0.3c-7.1,0.9-14.2,1.3-21.4,1.2h-1.3c-6.5-0.1-12.9-0.6-19.4-1.5l-1.4-0.2
		l-2.4-0.3l-1.9-0.3c-2.7-0.4-5.3-0.9-8-1.4c-0.6-0.1-1.2-0.2-1.8-0.4c-1.8-0.4-3.6-0.8-5.3-1.2c-1.2-0.3-2.4-0.6-3.6-0.9l-1.8-0.5
		l-1.8-0.5c-2.4-0.6-4.7-1.3-7-2c-2.7-0.8-5.4-1.7-8.1-2.6l-2.9-1c-3-1.1-6-2.2-9-3.4l-1.6-0.7l-1.3-0.6L181,430
		c-1.9-0.9-4-1.9-6.3-3.1l-1.2-0.6c-1.4-0.7-2.8-1.5-4.3-2.3c-3.1-1.7-6.5-3.6-10-5.7c-40-23.5-101.3-67.7-115.6-84.5
		c-0.7-0.9-1.4-1.7-2.2-2.6c-0.5-0.7-1.1-1.4-1.6-2.1s-1-1.3-1.4-1.9s-0.8-1.1-1.2-1.7s-0.8-1.1-1.1-1.6l-0.1-0.1
		c-0.5-0.7-0.9-1.3-1.3-2s-0.8-1.3-1.2-2c-0.2-0.3-0.4-0.6-0.6-1c-0.4-0.7-0.9-1.5-1.3-2.2l0,0c-0.5-0.8-0.9-1.6-1.4-2.5
		c-0.8-1.5-1.5-2.9-2.2-4.4l-0.5-1.1c-1.4-3-2.7-6.1-3.7-9.3c-0.4-1.1-0.7-2.2-1.1-3.3c-0.4-1.4-0.8-2.9-1.2-4.3
		c-0.1-0.3-0.1-0.6-0.2-0.9c-0.2-0.8-0.4-1.5-0.5-2.3c-0.2-1.1-0.4-2.1-0.6-3.2c0-0.3-0.1-0.5-0.1-0.8c-0.1-0.5-0.2-1.1-0.2-1.7
		s-0.2-1.3-0.2-2c0-0.2,0-0.5-0.1-0.7c-0.1-0.6-0.1-1.1-0.1-1.7c0,0,0-0.1,0-0.1c0-0.7-0.1-1.4-0.1-2c0-0.1,0-0.1,0-0.2
		c0-0.7,0-1.4-0.1-2.1c0-1.7,0-3.5,0.1-5.2c0-0.7,0.1-1.4,0.1-2c0.1-1.3,0.3-2.7,0.5-4c0.1-0.7,0.2-1.4,0.3-2c0.2-1.3,0.5-2.7,0.9-4
		c0.9-3.5,2-6.9,3.5-10.2c1.1-2.5,2.3-5,3.6-7.3c0.1-0.2,0.2-0.4,0.3-0.6c5.4-9.5,12.7-17.9,21-25.7l1.4-1.3l1.3-1.1
		c1-0.9,1.9-1.7,2.9-2.6l0.2-0.2c1.5-1.3,3.1-2.7,4.7-4c2.5-2.1,4.9-4.1,7.4-6.1l0.2-0.2c2.2-1.7,4.3-3.4,6.5-5.1l3.3-2.5
		c2.3-1.8,4.6-3.6,6.9-5.3l2.6-2.1c1-0.8,1.9-1.5,2.9-2.3c8.5-6.9,16.5-14.5,23.9-22.6c1.4-1.5,2.8-3.1,4.1-4.6
		c0.7-0.7,1.3-1.5,1.9-2.2c9.1-10.4,17.6-20.9,27.1-30.8c2.3-2.4,4.6-4.7,6.9-7c2-1.9,4-3.8,6.1-5.6c2.4-2.2,4.8-4.3,7.4-6.3
		c3.6-2.8,7.3-5.4,11.3-7.9c1-0.6,2-1.2,2.9-1.8c99.7-62,173.1-41.7,222.1,0c3.7,3.2,7.3,6.4,10.7,9.8c2.1,2,4.1,4.1,6,6.2
		c0.2,0.2,0.4,0.4,0.6,0.7c1.4,1.5,2.7,2.9,4,4.4l1.1,1.3c0.6,0.7,1.1,1.3,1.7,2s1.4,1.6,2,2.4l1.3,1.6c2.7,3.4,5.3,6.8,7.8,10.2
		c0.5,0.7,1,1.4,1.5,2.1c3.4,4.8,6.6,9.6,9.5,14.5l1.2,2.1c0.4,0.7,0.8,1.4,1.2,2.1l1.2,2.1c0.4,0.7,0.8,1.4,1.2,2.1l1.1,2
		c0.4,0.7,0.8,1.4,1.1,2l1.1,2c0.4,0.7,0.7,1.4,1.1,2l1,2l1,2c1.3,2.7,2.6,5.3,3.7,7.8c0.6,1.3,1.2,2.6,1.7,3.9
		c2.5,5.7,4.6,11.2,6.4,16.3c0,0,0,0,0,0.1c0.2,0.5,0.3,1,0.5,1.4s0.3,1,0.5,1.5s0.2,0.8,0.4,1.1c0.2,0.6,0.4,1.1,0.5,1.7
		s0.4,1.2,0.5,1.8c0.3,1.1,0.6,2.2,1,3.4c0.3,0.9,0.5,1.9,0.8,2.9c0,0.2,0.1,0.4,0.1,0.5s0.1,0.3,0.1,0.4c0.1,0.6,0.3,1.1,0.4,1.7
		c0.4,1.5,0.7,3,1,4.5c0.2,0.8,0.3,1.6,0.5,2.4l0.1,0.5c0.2,0.8,0.3,1.5,0.4,2.3c0.2,1,0.4,2.1,0.5,3.1c0.1,0.8,0.2,1.6,0.4,2.4
		c0,0.1,0,0.2,0,0.4c0.1,0.5,0.1,1,0.2,1.6s0.1,0.9,0.2,1.3c0.2,1.6,0.3,3.2,0.5,4.8l0.1,1.1l0.1,1.8c0,0.7,0.1,1.3,0.1,2
		c0,0.5,0,1,0.1,1.6c0,0.8,0,1.5,0.1,2.3S481.7,244.9,481.7,245.8z"/>
</g>
<path class="st2" d="M32.1,262.3C31.9,262.1,32,262,32.1,262.3z"/>
<path class="st3" d="M125.7,253.4c-1.1,6.8-6,12.4-12.6,14.5l-2.5,0.8c-8.9,12.6-24.6,18-37.9,10.2l-3.9-2.3l-10.9-13h-0.1
	c-3.5,0.7-7.4,0.2-9.9-2.2c-0.3,1.8-2.1,3.1-4,2.7c-1.8-0.3-3.1-2.1-2.7-4c0.1-0.8,0.6-1.5,1.2-2c-2.2,1.9-5.6,1-7.7-1.1
	c-0.1-5.8,0.6-11.6,2-17.3c0.9-3.5,2-6.9,3.4-10.2c1.1-2.5,2.3-5,3.6-7.3c0.1-0.2,0.2-0.4,0.3-0.6c2-3.5,4.2-6.8,6.7-10l1.3-1.1
	c1-0.9,1.9-1.7,2.9-2.6l0.2-0.2c1.5-1.3,3.1-2.7,4.7-4c2.5-2.1,4.9-4.1,7.4-6.1l0.2-0.2c2.2-1.7,4.3-3.4,6.5-5.1l3.3-2.5
	c0.7,0.1,1.3,0.2,1.9,0.4c2.7,0.9,3.1,3.4,5,5.1c2.5,2.2,4.8-1.5,8.6-1.4c11.7,0.4,7.1,12.3,12.8,10.8c24.6-6.5,20.4,24.9,9.8,31.9
	C121.5,241.8,126.9,245.3,125.7,253.4z"/>
<ellipse class="st4" cx="72.8" cy="242.4" rx="41.4" ry="40.9"/>
<ellipse class="st5" cx="72.8" cy="240.7" rx="37.8" ry="37.3"/>
<path class="st6" d="M32.2,255.4c-2.4,1.5-3.1,6.5-1.2,8.6c1.9,2.2,5.5,0.5,6.2-2.9c0.2,0.6,0.8,0.9,1.4,0.7
	c0.2-0.1,0.5-0.2,0.6-0.4c0.4-0.6,0.4-1.4,0.1-2.1c-0.2-0.1-0.1-0.3,0,0c1.2,1,3.3-0.1,3.6-2.2c-0.9,5.5,4.1,10.3,7.8,7.5
	c-1.1,2.3,0.3,5.4,2.2,6s3.9-0.5,5.8-1.8s3.7-2.7,5.7-2.8c1.7-0.1,3.3,0.9,5,1.5c5.3,1.8,11.4-0.6,15.4-6.1c2.7,4.5,9.2,2.9,11-2.8
	c0.4,2.6,2.2,4.7,4.2,4.7s4.1-1.9,4.8-4.6l0,0c0,2.5,2.3,3.7,3.9,2.1c2.3-2.4,3.1-5.7,2.3-8.9c2.7-0.1,5.4-3.3,5.8-6.9
	s-1.4-7.3-4.1-8.1c4.5-1.9,8-8,8.2-14.3s-3.1-12.1-7.5-13.6c-1.8-0.7-3.8-0.3-5.1,1.1c-0.5-3.6-2.2-6.8-4.5-8.4
	c-3.8-2.6-9.1-0.8-11.9,4c1.4-2.6,1.5-5.7,0.2-8.4c-1.3-2.3-3.8-3.3-5.9-2.2c-0.4-3.8-3.4-6.6-6.3-5.8s-5.2,4.8-5,8.7
	c-0.3-3.1-4-3.9-5.3-1.3c0.1,0.2-0.1,0.1,0,0c-1.8-3.9-5.6-5.8-9-4.7c-3.7,1.2-6.8,5.8-7.3,10.9c-2.6-2.3-6.6-2.2-9,0.2
	c-2.7,2.5-4.3,7.1-3.8,11.3c-2.9-2.8-7.7-1.3-9.7,3.1s-0.6,10.6,2.7,12.4c-2.3,0.4-4.3,3.4-4.3,6.5s2,5.7,4.3,5.6
	c-2.3,0.2-4.5,2.9-4.9,6.1S30,254.8,32.2,255.4z"/>
<g class="st7">
	<path class="st8" d="M70.3,241.1c-1.1-1-2.6-1.4-4-1c-1.6,0.6-2.7,2-3,3.7c-0.3,1.8,0.5,3.8,1.9,4.1c1.7,0.4,3.4-1.5,5.1-1.3
		c0.6,0.1,1.2,0.3,1.8,0.6c2.5,0.7,5-1.5,7.1-3.6c0.8-0.7,1.5-1.6,2-2.5c0.5-1,0.6-2.2,0.3-3.3c-0.6-1.4-2.1-1.5-3.4-1.2
		c-2.7,0.6-5.1,2-7,4.1c0.1-0.5,0.1-1,0.2-1.5L70.3,241.1z"/>
	<path class="st8" d="M106.4,236.2c-0.6-0.6-1.3-1-2.1-1.3c-0.9-0.2-1.8,0.2-2.3,1c-0.6,1.2-0.4,2.8,0.6,3.8c0.9,0.7,2,1.1,3.1,1.2
		c1.1,0.1,2.6,0.1,3.2-1.2c0.4-1,0.2-2.1-0.5-2.9c-0.6-0.6-1.4-1-2.2-1.3L106.4,236.2z"/>
	<path class="st8" d="M49.9,215.7c-2.5,1.7-4.2,4.3-4.7,7.3c-0.2,0.9-0.2,2.1,0.5,2.6c0.5,0.3,1.1,0.3,1.5,0l6.6-2.4
		c-1.1,0.5-2.1,1.3-3,2.2c-0.9,1.1-1.4,2.5-1.2,3.9c0.2,1.5,1.5,2.5,3,2.4c1.4-0.3,2.7-1,3.7-2.1c1.3-1.1,2.2-2.7,2.4-4.4
		c0-1.8-1.7-3.4-2.8-2.1c2.6-1.1,5-2.7,7.1-4.6c0.9-0.7,1.6-1.6,2.1-2.6c0.6-1.1,0.7-2.3,0.3-3.4c-2.2-5.1-5.2,2.8-6.5,3.5
		C56.2,217.5,53.3,213.8,49.9,215.7z"/>
	<path class="st8" d="M39.2,238.7c-0.3,1-0.1,2.1,0.5,2.9c0.5,0.5,1.4,0.4,1.8-0.1c0.1-0.2,0.2-0.3,0.3-0.6c-1.6,0.6-3,1.7-4,3.1
		c-1,1.6-0.8,4.4,0.7,4.9c0.9,0.3,1.9-0.3,2.8-0.9c2.5-1.9,4.8-3.9,6.9-6.1c-0.6,1.7,0.3,3.4,2,4c0.2,0.1,0.3,0.1,0.5,0.1
		c1.6,0.1,3.2-1.1,4.6-2.3c1.8-1.4,3.8-3.6,3.4-6.1c-0.3-1.6-1.8-2.8-3.4-2.5c-0.3,0-0.5,0.1-0.8,0.2c-1.7,0.8-3,2.6-4.2,4.3
		c1-1.8-0.3-4.2-1.9-4.4s-3.2,1.1-4.2,2.7c1.9-1.4,2.3-4.8-0.1-5C42.4,232.6,39.7,237,39.2,238.7z"/>
	<path class="st8" d="M89.8,228.1c-1.4-0.6-3.1,0.7-3.5,2.5s0.6,3.9,2.1,4.1c-1.2,0.3-2.2,1-2.8,2c-0.4,0.6-0.7,1.4-0.6,2.1
		c0.1,1,0.9,1.8,1.9,1.8c0.9-0.1,1.8-0.5,2.6-1.1c-0.9,0.1-1.8,0.5-2.6,1.1c-0.8,0.8-1,2-0.4,3c0.5,0.6,1.4,0.5,2.1,0.2
		c1.7-0.7,3.2-1.9,4.4-3.4c0.7,1.3,2.2,1.9,3.6,1.7c1.6-0.6,2.5-2.3,2.1-3.9c-0.2-1.1-1.1-1.8-2.2-1.9c-1,0-2,0.3-2.9,0.8
		c1.1-0.9,1.9-2.1,2.4-3.4c0.4-1.4-0.3-3.3-1.5-3.1c-1.3,0.2-2,2.5-3.1,3.4C90.1,232.6,92.5,229.2,89.8,228.1z"/>
	<path class="st8" d="M66.4,222.6c-1.5,1.4-2.1,3.9-2,6.2c0.1,2.5,0.9,5.2,2.7,6.1c2.4,1.2,5.4-1.5,5.9-4.8c0.5-3.1-0.8-6.2-3.4-7.9
		C68.5,221.6,67.2,221.8,66.4,222.6z"/>
	<path class="st8" d="M83.1,218.9l0.6,0.6c-0.8-1.2-2.4-1.6-3.6-0.8c-0.3,0.2-0.5,0.4-0.7,0.7c-1.2,1.6-1.3,3.9-0.1,5.6
		c1,1.1,2.8,1.1,3.8,0.1c0.2-0.2,0.4-0.5,0.5-0.7c1.9,0.9,4.2,0.2,5.2-1.6c1.2-1.9,1-5.2-0.6-6.3s-4.2,0.9-4,3.2l-0.7-1L83.1,218.9z
		"/>
	<path class="st8" d="M101.4,221.5c-1.4,1.5-2.4,3.3-2.9,5.3c-0.5,2.1,0.2,4.6,1.8,5s3.1-1.4,4.1-3.1c1-1.6,1.4-3.5,1.1-5.4
		c-0.4-1.8-2.4-2.7-3.5-1.3L101.4,221.5z"/>
	<path class="st8" d="M75.1,210.8c-0.4-1.2-1.6-1.9-2.9-1.6c-0.3,0.1-0.6,0.3-0.9,0.5c-1.3,1.3-1.8,3.2-1.3,5
		c0.4,1.6,1.7,2.7,3.3,2.9c2,0,3.7-1.7,3.6-3.7c0-0.1,0-0.2,0-0.3c0.7,1.2,2.1,1.8,3.4,1.5c1.3-0.4,2.6-1,3.6-1.9
		c1.5-1.2,3.2-3,3.1-5.2c0-1.6-1.2-2.9-2.8-3.1c-1.5,0.1-2.9,0.8-3.9,2.1c-0.8,0.9-1.6,2.1-2.5,3s-2.2,1.4-3.1,0.8L75.1,210.8z"/>
</g>
<rect x="145.7" y="272.8" class="st6" width="230.7" height="97.1"/>
<rect x="150.5" y="278.6" class="st4" width="21.7" height="12"/>
<rect x="336.8" y="337.2" class="st4" width="34.2" height="12"/>
<rect x="349.9" y="293.6" class="st4" width="21.1" height="12"/>
<rect x="150.5" y="322.4" class="st4" width="21.7" height="12"/>
<rect x="150.5" y="307.9" class="st4" width="17.6" height="12"/>
<rect x="150.5" y="293.3" class="st4" width="12" height="12"/>
<rect x="165.8" y="293.3" class="st4" width="12" height="12"/>
<rect x="181.2" y="293.3" class="st4" width="12" height="12"/>
<rect x="196.5" y="293.3" class="st4" width="12" height="12"/>
<rect x="211.8" y="293.3" class="st4" width="12" height="12"/>
<rect x="227.2" y="293.3" class="st4" width="12" height="12"/>
<rect x="242.5" y="293.3" class="st4" width="12" height="12"/>
<rect x="257.8" y="293.3" class="st4" width="12" height="12"/>
<rect x="273.2" y="293.3" class="st4" width="12" height="12"/>
<rect x="288.5" y="293.3" class="st4" width="12" height="12"/>
<rect x="303.8" y="293.3" class="st4" width="12" height="12"/>
<rect x="319.2" y="293.3" class="st4" width="12" height="12"/>
<rect x="334.5" y="293.3" class="st4" width="12" height="12"/>
<rect x="150.5" y="352" class="st4" width="12" height="12"/>
<rect x="165.8" y="352" class="st4" width="12" height="12"/>
<rect x="181.2" y="352" class="st4" width="12" height="12"/>
<rect x="196.5" y="352" class="st4" width="14.7" height="12"/>
<rect x="214.5" y="352" class="st4" width="73.3" height="12"/>
<rect x="312.5" y="352" class="st4" width="12" height="12"/>
<rect x="327.8" y="352" class="st4" width="12" height="12"/>
<rect x="343.2" y="352" class="st4" width="12" height="12"/>
<rect x="290.8" y="352" class="st4" width="18.6" height="12"/>
<rect x="359" y="352" class="st4" width="12" height="12"/>
<rect x="171.5" y="307.9" class="st4" width="12" height="12"/>
<rect x="186.8" y="307.9" class="st4" width="12" height="12"/>
<rect x="202.1" y="307.9" class="st4" width="12" height="12"/>
<rect x="217.5" y="307.9" class="st4" width="12" height="12"/>
<rect x="232.8" y="307.9" class="st4" width="12" height="12"/>
<rect x="248.1" y="307.9" class="st4" width="12" height="12"/>
<rect x="263.5" y="307.9" class="st4" width="12" height="12"/>
<rect x="278.8" y="307.9" class="st4" width="12" height="12"/>
<rect x="294.1" y="307.9" class="st4" width="12" height="12"/>
<rect x="309.5" y="307.9" class="st4" width="12" height="12"/>
<rect x="324.8" y="307.9" class="st4" width="12" height="12"/>
<rect x="340.1" y="307.9" class="st4" width="12" height="12"/>
<polygon class="st4" points="371,307.9 371,334.6 359,334.6 359,319.9 355.5,319.9 355.5,307.9 "/>
<rect x="175" y="322.6" class="st4" width="12" height="12"/>
<rect x="190.3" y="322.6" class="st4" width="12" height="12"/>
<rect x="205.7" y="322.6" class="st4" width="12" height="12"/>
<rect x="221" y="322.6" class="st4" width="12" height="12"/>
<rect x="236.3" y="322.6" class="st4" width="12" height="12"/>
<rect x="251.7" y="322.6" class="st4" width="12" height="12"/>
<rect x="267" y="322.6" class="st4" width="12" height="12"/>
<rect x="282.3" y="322.6" class="st4" width="12" height="12"/>
<rect x="297.7" y="322.6" class="st4" width="12" height="12"/>
<rect x="313" y="322.6" class="st4" width="12" height="12"/>
<rect x="328.3" y="322.6" class="st4" width="12" height="12"/>
<rect x="343.7" y="322.6" class="st4" width="12" height="12"/>
<rect x="168.5" y="337.2" class="st4" width="12" height="12"/>
<rect x="183.8" y="337.2" class="st4" width="12" height="12"/>
<rect x="199.1" y="337.2" class="st4" width="12" height="12"/>
<rect x="214.5" y="337.2" class="st4" width="12" height="12"/>
<rect x="229.8" y="337.2" class="st4" width="12" height="12"/>
<rect x="245.1" y="337.2" class="st4" width="12" height="12"/>
<rect x="260.5" y="337.2" class="st4" width="12" height="12"/>
<rect x="275.8" y="337.2" class="st4" width="12" height="12"/>
<rect x="291.1" y="337.2" class="st4" width="12" height="12"/>
<rect x="306.5" y="337.2" class="st4" width="12" height="12"/>
<rect x="321.8" y="337.2" class="st4" width="12" height="12"/>
<rect x="175" y="279.4" class="st4" width="12" height="12"/>
<rect x="190.3" y="279.4" class="st4" width="12" height="12"/>
<rect x="205.7" y="279.4" class="st4" width="12" height="12"/>
<rect x="221" y="279.4" class="st4" width="12" height="12"/>
<rect x="236.3" y="279.4" class="st4" width="12" height="12"/>
<rect x="251.7" y="279.4" class="st4" width="12" height="12"/>
<rect x="267" y="279.4" class="st4" width="12" height="12"/>
<rect x="282.3" y="279.4" class="st4" width="12" height="12"/>
<rect x="297.7" y="279.4" class="st4" width="12" height="12"/>
<rect x="313" y="279.4" class="st4" width="12" height="12"/>
<rect x="328.3" y="279.4" class="st4" width="12" height="12"/>
<rect x="343.7" y="279.4" class="st4" width="12" height="12"/>
<rect x="359" y="279.4" class="st4" width="12" height="12"/>
<rect x="150.5" y="337.2" class="st4" width="14.6" height="12"/>
<polygon class="st9" points="145.7,273.4 150.5,271.8 373.2,271.8 376.4,273.4 "/>
<path class="st3" d="M310.3,440l-4.7-28.2c-1-4.2-3.2-8-6.4-11.1c-9.3-9-21.7-18.2-22.2-30c-0.8-18-3.6-17.5-3.3-21.9
	c1.2-2.1,2.3-4.3,3.2-6.6c0.6-1.7,1-3.5,1.4-5.3c0.4-1.8,2.1-3.1,4-2.9c1.3,0.2,2.5,0.7,3.4,1.6c1.7,1.8,2.6,4.1,2.5,6.5
	c0,2.4-0.4,4.8-1,7.1c1.6,4,2.6,8.2,3,12.4c1.1-3.3,1.9-6.6,3-9.9c0.2-0.1,0.1-0.4,0.4-0.5c-1.5-3.2-0.2-3.1-3.2-10.2
	c-5-12-10.6-23.6-14.6-38.6c-0.3-1.4-0.3-2.9,0.1-4.2c1.5-4.3,5.9-3.3,7.8-0.8c0.5,0.7,0.9,1.4,1.2,2.2c2.6,6.4,5.8,12.6,9.6,18.5
	l10.9,16.6c0,0,3.8-3.1,4.4-4.5l0,0c0.6-1.4,0.9-12.7,0.9-12.7s-0.9,2.1-2.8,2c-1.4-0.1-4.2,0.7-6.2-1.5c-1.6-1.9-1.7-4.6-0.2-6.5
	l4.9-6.7c2.2-1.7,5.2-2.1,7.7-0.9c3.2,1.6,6.1,3.7,8.7,6.1c2.6-0.1,5.2,0.4,7.6,1.5c3.5,1.7,7.1,6.5,7.1,6.5s4.1,0.2,5.9,1.6
	c0.5,0.3,6.7,10,4.4,17.5c-1.3,4.5-2.1,11-2.8,12.8l-3,44.1l6.1,29l-13.1,7.3c-4.8,2.7-9.8,4.9-15,6.7L310.3,440z"/>
<path class="st8" d="M347.7,388.5l0.1-44.2c0.5-1.8,0.9-8.3,1.9-12.9c1.7-7.7-5.1-16.9-5.6-17.2c-1.9-1.2-6-1.2-6-1.2s-4-4.6-7.6-6
	c-2.4-0.9-5.1-1.2-7.7-1c-2.7-2.3-5.8-4.1-9.1-5.5c-2.6-1-5.6-0.4-7.7,1.4l-4.5,7c-1.4,2-1.1,4.8,0.6,6.5c2.1,2.1,4.9,1.1,6.3,1.1
	c1.9,0,2.6-2.2,2.6-2.2s0.5,11.3,0,12.7l0,0c-0.5,1.4-4.1,4.8-4.1,4.8l-12-15.8c-4.1-5.6-7.7-11.5-10.8-17.8
	c-0.3-0.8-0.8-1.5-1.4-2.1c-2.1-2.4-6.6-3.1-7.8,1.3c-0.3,1.4-0.2,2.9,0.2,4.2c5,14.8,11.4,26,17.2,37.6c3.5,6.9,2.2,6.8,3.9,10
	c-0.2,0.1-0.1,0.4-0.3,0.5c-0.8,3.4-1.4,6.7-2.3,10.1c-0.7-4.2-2-8.3-3.8-12.2c0.5-2.3,0.7-4.7,0.5-7.1c-0.2-2.4-1.2-4.7-3-6.3
	c-1-0.8-2.2-1.3-3.5-1.4c-1.9-0.1-3.6,1.2-3.8,3.1c-0.2,1.8-0.5,3.6-1,5.4c-0.8,2.3-1.7,4.6-2.8,6.8c0,4.5,2.8,3.7,4.8,21.7
	c1.6,14,19.6,23.2,29.4,33.3l10.4,32.9c12.2-4.9,23.9-11.1,35-18.3L347.7,388.5z"/>
<g>
	<defs>
		<path id="SVGID_1_" d="M347.7,388.5l0.1-44.2c0.5-1.8,0.9-8.3,1.9-12.9c1.7-7.7-5.1-16.9-5.6-17.2c-1.9-1.2-6-1.2-6-1.2
			s-4-4.6-7.6-6c-2.4-0.9-5.1-1.2-7.7-1c-2.7-2.3-5.8-4.1-9.1-5.5c-2.6-1-5.6-0.4-7.7,1.4l-4.5,7c-1.4,2-1.1,4.8,0.6,6.5
			c2.1,2.1,4.9,1.1,6.3,1.1c1.9,0,2.6-2.2,2.6-2.2s0.5,11.3,0,12.7l0,0c-0.5,1.4-4.1,4.8-4.1,4.8l-12-15.8
			c-4.1-5.6-7.7-11.5-10.8-17.8c-0.3-0.8-0.8-1.5-1.4-2.1c-2.1-2.4-6.6-3.1-7.8,1.3c-0.3,1.4-0.2,2.9,0.2,4.2
			c5,14.8,11.4,26,17.2,37.6c3.5,6.9,2.2,6.8,3.9,10c-0.2,0.1-0.1,0.4-0.3,0.5c-0.8,3.4-1.4,6.7-2.3,10.1c-0.7-4.2-2-8.3-3.8-12.2
			c0.5-2.3,0.7-4.7,0.5-7.1c-0.2-2.4-1.2-4.7-3-6.3c-1-0.8-2.2-1.3-3.5-1.4c-1.9-0.1-3.6,1.2-3.8,3.1c-0.2,1.8-0.5,3.6-1,5.4
			c-0.8,2.3-1.7,4.6-2.8,6.8c0,4.5,2.8,3.7,4.8,21.7c1.6,14,19.6,23.2,29.4,33.3l10.4,32.9c12.2-4.9,23.9-11.1,35-18.3L347.7,388.5z
			"/>
	</defs>
	<clipPath id="SVGID_00000104685741380416852770000017416917550943692721_">
		<use xlink:href="#SVGID_1_"  style="overflow:visible;"/>
	</clipPath>
	<g style="clip-path:url(#SVGID_00000104685741380416852770000017416917550943692721_);">
		<path class="st1" d="M342.5,328.4c0.4-1.3,1.2-2.5,2.3-3.5c1.1-0.9,2.8-0.9,3.8,0.1c-0.7-2.3-1.5-4.6-2.4-6.8
			c-0.5-1.8-1.5-3.4-2.8-4.7c-1.4-1.2-3.8-1.4-5,0c0.9,5.2,1,10.6,0.3,15.8c-0.4,2.8-0.9,6.1,1.1,8.2c0.5,0.4,1.5-0.3,1.1-0.9
			c-0.2-0.3-0.7-0.3-1-0.3C340.6,333.7,341.5,331,342.5,328.4z"/>
		<path class="st1" d="M342.5,328.4c0.4-1.3,1.2-2.5,2.3-3.5c1.1-0.9,2.8-0.9,3.8,0.1c-0.7-2.3-1.5-4.6-2.4-6.8
			c-0.5-1.8-1.5-3.4-2.8-4.7c-1.4-1.2-3.8-1.4-5,0c0.9,5.2,1,10.6,0.3,15.8c-0.4,2.8-0.9,6.1,1.1,8.2c0.5,0.4,1.5-0.3,1.1-0.9
			c-0.2-0.3-0.7-0.3-1-0.3C340.6,333.7,341.5,331,342.5,328.4z"/>
		<path class="st11" d="M342.5,328.4c0.4-1.3,1.2-2.5,2.3-3.5c1.1-0.9,2.8-0.9,3.8,0.1c-0.7-2.3-1.5-4.6-2.4-6.8
			c-0.5-1.8-1.5-3.4-2.8-4.7c-1.4-1.2-3.8-1.4-5,0c0.9,5.2,1,10.6,0.3,15.8c-0.4,2.8-0.9,6.1,1.1,8.2c0.5,0.4,1.5-0.3,1.1-0.9
			c-0.2-0.3-0.7-0.3-1-0.3C340.6,333.7,341.5,331,342.5,328.4z"/>
		<path class="st1" d="M326.6,323.7c0,1.9,0.2,3.9,0.5,5.7c0.4,1.9,1.5,3.6,3.2,4.6c-1-3.7-0.5-7.7,0.1-11.5l1-7
			c0-0.8,0.3-1.6,0.7-2.3c0.4-0.7,1.3-1,2.1-0.8c-1,0.6-2.3-0.2-2.9-1.2c-0.4-1.1-1-2.1-1.5-3.1c-1.3-1.7-4.2-2.1-6.2-1.6
			C324.2,312.3,326.4,317.8,326.6,323.7z"/>
		<path class="st1" d="M326.6,323.7c0,1.9,0.2,3.9,0.5,5.7c0.4,1.9,1.5,3.6,3.2,4.6c-1-3.7-0.5-7.7,0.1-11.5l1-7
			c0-0.8,0.3-1.6,0.7-2.3c0.4-0.7,1.3-1,2.1-0.8c-1,0.6-2.3-0.2-2.9-1.2c-0.4-1.1-1-2.1-1.5-3.1c-1.3-1.7-4.2-2.1-6.2-1.6
			C324.2,312.3,326.4,317.8,326.6,323.7z"/>
		<g class="st12">
			<path class="st1" d="M326.6,323.7c0,1.9,0.2,3.9,0.5,5.7c0.4,1.9,1.5,3.6,3.2,4.6c-1-3.7-0.5-7.7,0.1-11.5l1-7
				c0-0.8,0.3-1.6,0.7-2.3c0.4-0.7,1.3-1,2.1-0.8c-1,0.6-2.3-0.2-2.9-1.2c-0.4-1.1-1-2.1-1.5-3.1c-1.3-1.7-4.2-2.1-6.2-1.6
				C324.2,312.3,326.4,317.8,326.6,323.7z"/>
		</g>
		<path class="st1" d="M310.3,308.2c-0.6-0.6-1-1.3-1.1-2.1c-0.1-0.8-0.5-1.5-1.2-2c-3.1,2-1.4,7.7-4.5,9.5
			c-0.6,0.4-1.4,0.6-1.7,1.2c-0.3,0.6-0.1,1.3,0.3,1.8c0.5,0.4,1.1,0.7,1.7,0.8c2.5,0.4,5.1-0.7,6.5-2.8c1.2-1.7,2.1-4.4,1.5-6.4
			C311.4,308.5,310.8,308.5,310.3,308.2z"/>
		<path class="st1" d="M278.3,345.6c0,0.2-0.1,0.5,0.1,0.6s0.6-0.1,0.8-0.4c1.4-1.9,3.8-2.6,6-1.9c0.8,0,1.1-1.2,0.6-1.9
			c-0.6-0.5-1.4-0.8-2.2-0.7c-0.8,0.1-1.6,0-2.4-0.4c-0.8-0.5-1.2-1.6-1-2.5C279.6,340.9,279,343.2,278.3,345.6z"/>
		<g class="st12">
			<path class="st1" d="M310.3,308.2c-0.6-0.6-1-1.3-1.1-2.1c-0.1-0.8-0.5-1.5-1.2-2c-3.1,2-1.4,7.7-4.5,9.5
				c-0.6,0.4-1.4,0.6-1.7,1.2c-0.3,0.6-0.1,1.3,0.3,1.8c0.5,0.4,1.1,0.7,1.7,0.8c2.5,0.4,5.1-0.7,6.5-2.8c1.2-1.7,2.1-4.4,1.5-6.4
				C311.4,308.5,310.8,308.5,310.3,308.2z"/>
			<path class="st1" d="M278.3,345.6c0,0.2-0.1,0.5,0.1,0.6s0.6-0.1,0.8-0.4c1.4-1.9,3.8-2.6,6-1.9c0.8,0,1.1-1.2,0.6-1.9
				c-0.6-0.5-1.4-0.8-2.2-0.7c-0.8,0.1-1.6,0-2.4-0.4c-0.8-0.5-1.2-1.6-1-2.5C279.6,340.9,279,343.2,278.3,345.6z"/>
		</g>
		<path class="st1" d="M319.1,307.5c-1.8-0.2-3.6-0.3-5.1-1.2c-1.9-1.1-3.2-3.5-5.4-3.6c-2-0.1-3.4,1.7-4.5,3.3
			c0-2.5,1.6-4.7,3.9-5.6c2.3-0.8,4.9-0.7,7.1,0.3c2.2,1,4.3,2.3,6.2,3.9c0.8,0.5,1.5,1.2,2.1,2
			C325.8,310.5,320.6,307.7,319.1,307.5z"/>
		<path class="st11" d="M319.1,307.5c-1.8-0.2-3.6-0.3-5.1-1.2c-1.9-1.1-3.2-3.5-5.4-3.6c-2-0.1-3.4,1.7-4.5,3.3
			c0-2.5,1.6-4.7,3.9-5.6c2.3-0.8,4.9-0.7,7.1,0.3c2.2,1,4.3,2.3,6.2,3.9c0.8,0.5,1.5,1.2,2.1,2
			C325.8,310.5,320.6,307.7,319.1,307.5z"/>
		<path class="st1" d="M287.8,364.3c0.1-0.2,0.2-0.4,0.3-0.7C287.9,363.8,287.8,364,287.8,364.3z"/>
		<path class="st1" d="M290.8,348.8c-0.2-2.5,0.1-4.9,0-7.4s-0.8-5.1-2.5-6.8c-2.6-2.4-9.6-1.2-7.3,3.4c0.7,1.3,2.3,1.9,3.7,1.4
			c1.3-0.6,1.9-2.2,1.3-3.6c0,0,0,0,0-0.1c2.8,4.5,2.6,10.3-0.6,14.6c3.7,3.4,4.8,8.7,2.8,13.2c0.5-0.3,1.2-0.3,1.6,0
			c0.6,0.6,1.1,1.4,1.3,2.3c0.4,0.8,1,1.6,1.9,1.6c1.2-3,0.8-6.3,0-9.4S291,352,290.8,348.8z"/>
		<path class="st1" d="M316.6,302.4c-1.4-1.1-3-1.8-4.7-2L316.6,302.4z"/>
		<path class="st1" d="M328.4,333.7c-0.4-1.7-1.2-3.3-1.6-5c-1.1-3.9-0.4-8.1-0.9-12.1c-0.7-5.3-3.3-10.1-7.4-13.5l-1.8-0.8
			c1.7,1.3,3,3.2,3.6,5.2c1.4,4.8,1.8,9.8,2.4,14.7c0.9,7.6,2.3,15.2,4.1,22.7C328,341.3,329.2,337.5,328.4,333.7z"/>
		<path class="st1" d="M309.3,315.9c1.2-1.1,2-2.5,2.1-4.1c0.1-1.4,0.1-2.8-0.1-4.2c-0.2,0.7-0.9,1.1-1.6,1
			c-0.8-0.3-1.5-0.9-1.9-1.7l-0.4,1.2l-0.1-0.7l-0.5,0.6c0.7,2,1.4,4.3,0.3,6.2c-0.6,0.8-1.4,1.6-2.2,2.1
			C306.3,317.1,308.1,317,309.3,315.9z"/>
		<path class="st1" d="M311.3,307.1l0.1,0.5C311.4,307.4,311.4,307.3,311.3,307.1z"/>
		<path class="st1" d="M306,327.3c-3.5-6.9-7-13.8-10.9-20.5c-2.2-4-4.7-7.7-7.6-11.2c-1.3-1.5-5.2-5-7.3-2.7
			c-1.4,1.5,0.4,4.3-1.3,5.9c0.4,0,2.4-0.2,2.6,0.1c4.4,5.5,6.8,12.3,6.7,19.4c1.4-1.1,3.4,0.4,4.5,1.9c6.8,8.7,13.1,17.8,19,27.1
			c-1.1-4.1-1.2-8.5-2.4-12.6C308.4,332.2,307.4,329.7,306,327.3z"/>
		<path class="st1" d="M346.8,344.1c1.8-4.4,2.8-9.1,3.1-13.8c0.2-4.4-0.9-8.7-3.1-12.5c-0.6-0.9-3-4.8-4.3-4.5
			c-2.4,0.6,0.7,4.6,1.3,5.7c2,3.9,4.1,7.9,4,12.3c-0.1,3.4-1.5,6.5-2.6,9.6c-0.9,2.2-1.3,4.5-1.4,6.9c-0.2,0.3-0.3,0.5-0.5,0.8
			c-1.5,2.1-3.7,3.6-6.3,4.1c1-3,1.9-6,2.9-9c0.4-1.1,0.5-2.5-0.1-3.3c0.2-0.4,0.3-0.8,0.3-1.3c-0.1-0.8-0.4-1.6-0.9-2.3
			c-1.3-2.9-0.9-6.2-0.6-9.4c0.4-3.9,0.5-7.9-0.6-11.7s-3.8-7.2-7.5-8.5l1,1l-1.3-0.9l2.3,4.9l-0.9,1.2c1.3-0.7,2.9,0.3,3.5,1.6
			c0.5,1.4,0.6,2.9,0.3,4.3c-0.8,8.1-0.4,16.3,1.2,24.3c-0.1,1.9-0.5,3.7-1.4,5.3c-1,1.8-2.9,2.9-5,2.7c0.5-2-0.3-4.1-1.9-5.3
			c-2,2.8-0.8,7.1-0.5,10.3c0.5,4.8,1.2,9.6,2.3,14.4c0.3-4.1,1.2-8.1,2.5-12c1.1,3.9,2.2,7.9,3.3,11.9c-0.1-1.1,0.2-2.2,0.6-3.2
			c0.5-1,1.7-1.6,2.8-1.3c0.8,0.4,1.4,1.2,1.6,2.1c2.8,6.8,3.5,14.4,2,21.6c1.3,0.8,3.1-0.1,3.9-1.5c0.6-1.4,0.9-3,0.7-4.5
			C347.3,370.8,347,357.5,346.8,344.1z"/>
		<path class="st1" d="M312.9,348.4c-0.6,1.1,2,5.6,2.4,6.6c2.2,5.4,4.4,10.8,6.6,16.1c-0.7-7.1-2.5-14.1-5.1-20.7
			C316.3,349.4,314.2,346.1,312.9,348.4z"/>
		<path class="st1" d="M316.3,319.8c-0.4,0.6-0.9,1.3-1.6,1.1s-0.7-1-0.7-1.6c0.1-3.7,0.1-7.5,0.2-11.2c-3,2.2-2.6,5-2.9,8.2
			c-0.1,1.9,0.4,10.8-0.9,11.9c3-2.6,5.5-5.6,7.4-9.1C317.4,318.7,316.7,319.3,316.3,319.8z"/>
		<g class="st12">
			<path class="st1" d="M287.8,364.3c0.1-0.2,0.2-0.4,0.3-0.7C287.9,363.8,287.8,364,287.8,364.3z"/>
			<path class="st1" d="M290.8,348.8c-0.2-2.5,0.1-4.9,0-7.4s-0.8-5.1-2.5-6.8c-2.6-2.4-9.6-1.2-7.3,3.4c0.7,1.3,2.3,1.9,3.7,1.4
				c1.3-0.6,1.9-2.2,1.3-3.6c0,0,0,0,0-0.1c2.8,4.5,2.6,10.3-0.6,14.6c3.7,3.4,4.8,8.7,2.8,13.2c0.5-0.3,1.2-0.3,1.6,0
				c0.6,0.6,1.1,1.4,1.3,2.3c0.4,0.8,1,1.6,1.9,1.6c1.2-3,0.8-6.3,0-9.4S291,352,290.8,348.8z"/>
			<path class="st1" d="M316.6,302.4c-1.4-1.1-3-1.8-4.7-2L316.6,302.4z"/>
			<path class="st1" d="M328.4,333.7c-0.4-1.7-1.2-3.3-1.6-5c-1.1-3.9-0.4-8.1-0.9-12.1c-0.7-5.3-3.3-10.1-7.4-13.5l-1.8-0.8
				c1.7,1.3,3,3.2,3.6,5.2c1.4,4.8,1.8,9.8,2.4,14.7c0.9,7.6,2.3,15.2,4.1,22.7C328,341.3,329.2,337.5,328.4,333.7z"/>
			<path class="st1" d="M309.3,315.9c1.2-1.1,2-2.5,2.1-4.1c0.1-1.4,0.1-2.8-0.1-4.2c-0.2,0.7-0.9,1.1-1.6,1
				c-0.8-0.3-1.5-0.9-1.9-1.7l-0.4,1.2l-0.1-0.7l-0.5,0.6c0.7,2,1.4,4.3,0.3,6.2c-0.6,0.8-1.4,1.6-2.2,2.1
				C306.3,317.1,308.1,317,309.3,315.9z"/>
			<path class="st1" d="M311.3,307.1l0.1,0.5C311.4,307.4,311.4,307.3,311.3,307.1z"/>
			<path class="st1" d="M306,327.3c-3.5-6.9-7-13.8-10.9-20.5c-2.2-4-4.7-7.7-7.6-11.2c-1.3-1.5-5.2-5-7.3-2.7
				c-1.4,1.5,0.4,4.3-1.3,5.9c0.4,0,2.4-0.2,2.6,0.1c4.4,5.5,6.8,12.3,6.7,19.4c1.4-1.1,3.4,0.4,4.5,1.9c6.8,8.7,13.1,17.8,19,27.1
				c-1.1-4.1-1.2-8.5-2.4-12.6C308.4,332.2,307.4,329.7,306,327.3z"/>
			<path class="st1" d="M346.8,344.1c1.8-4.4,2.8-9.1,3.1-13.8c0.2-4.4-0.9-8.7-3.1-12.5c-0.6-0.9-3-4.8-4.3-4.5
				c-2.4,0.6,0.7,4.6,1.3,5.7c2,3.9,4.1,7.9,4,12.3c-0.1,3.4-1.5,6.5-2.6,9.6c-0.9,2.2-1.3,4.5-1.4,6.9c-0.2,0.3-0.3,0.5-0.5,0.8
				c-1.5,2.1-3.7,3.6-6.3,4.1c1-3,1.9-6,2.9-9c0.4-1.1,0.5-2.5-0.1-3.3c0.2-0.4,0.3-0.8,0.3-1.3c-0.1-0.8-0.4-1.6-0.9-2.3
				c-1.3-2.9-0.9-6.2-0.6-9.4c0.4-3.9,0.5-7.9-0.6-11.7s-3.8-7.2-7.5-8.5l1,1l-1.3-0.9l2.3,4.9l-0.9,1.2c1.3-0.7,2.9,0.3,3.5,1.6
				c0.5,1.4,0.6,2.9,0.3,4.3c-0.8,8.1-0.4,16.3,1.2,24.3c-0.1,1.9-0.5,3.7-1.4,5.3c-1,1.8-2.9,2.9-5,2.7c0.5-2-0.3-4.1-1.9-5.3
				c-2,2.8-0.8,7.1-0.5,10.3c0.5,4.8,1.2,9.6,2.3,14.4c0.3-4.1,1.2-8.1,2.5-12c1.1,3.9,2.2,7.9,3.3,11.9c-0.1-1.1,0.2-2.2,0.6-3.2
				c0.5-1,1.7-1.6,2.8-1.3c0.8,0.4,1.4,1.2,1.6,2.1c2.8,6.8,3.5,14.4,2,21.6c1.3,0.8,3.1-0.1,3.9-1.5c0.6-1.4,0.9-3,0.7-4.5
				C347.3,370.8,347,357.5,346.8,344.1z"/>
			<path class="st1" d="M312.9,348.4c-0.6,1.1,2,5.6,2.4,6.6c2.2,5.4,4.4,10.8,6.6,16.1c-0.7-7.1-2.5-14.1-5.1-20.7
				C316.3,349.4,314.2,346.1,312.9,348.4z"/>
			<path class="st1" d="M316.3,319.8c-0.4,0.6-0.9,1.3-1.6,1.1s-0.7-1-0.7-1.6c0.1-3.7,0.1-7.5,0.2-11.2c-3,2.2-2.6,5-2.9,8.2
				c-0.1,1.9,0.4,10.8-0.9,11.9c3-2.6,5.5-5.6,7.4-9.1C317.4,318.7,316.7,319.3,316.3,319.8z"/>
		</g>
	</g>
</g>
<path class="st13" d="M324,307.6c1.8,6.5,2.7,13.2,2.7,20c-0.1,1.1,0.1,2.3,0.4,3.4c0.3,1.1,1.2,2,2.3,2.3"/>
<path class="st13" d="M338.1,314.2c3,6.3-0.1,20.2,0.1,21.2c0.2,1,0.8,1.9,1.7,2.4"/>
<path class="st13" d="M312.3,306.7c-0.4,2-0.6,4.3-1,6.3c-2.4-2-3.8-4.9-4-8"/>
<path class="st13" d="M293.2,360.1L291,361"/>
<path class="st13" d="M293.7,361.8c-0.3,1.7-0.3,3.4,0,5.1"/>
<path class="st13" d="M306.4,343.1c0.8,1.4,1.6,2.9,2.4,4.3"/>
<path class="st13" d="M311,327.4l2.4-3.4"/>
<path class="st13" d="M344.4,343.1l-0.7,2.6"/>
<path class="st13" d="M338.6,335.9c0.7-2.2,1.4-4.5,2.1-6.7"/>
<path class="st13" d="M345.6,324c1.3-0.7,2.9-0.2,3.6,1.1"/>
<path class="st13" d="M331.3,312.5c1.7-0.5,3.5-0.1,4.8,1.1"/>
<path class="st13" d="M286.7,319.2c1.6-1.7,3.9-2.6,6.2-2.3"/>
<path class="st13" d="M277.7,300.3c1.4-1,3.2-1.5,5-1.2"/>
<path class="st8" d="M279.6,345.1c-1.2,0.9-2.2,2-2.9,3.3L279.6,345.1z"/>
<path class="st13" d="M280.5,340.5c1.6-1.1,4.1,1.4,5.5,0.1c0.5-0.6,0.7-1.4,0.5-2.2c-0.2-0.7-0.3-1.5-0.3-2.3"/>
<path class="st13" d="M325.1,333.6c1.9,4,2.3,8.6,1.1,12.8"/>
<path class="st13" d="M336.7,339.8c0.3,1.9,0,3.8-1,5.5"/>
<path class="st14" d="M321.1,436.1l-10.4-32.9c-9.8-10.1-27.8-19.3-29.4-33.3c-2-17.9-4.8-17.2-4.8-21.7c1.1-2.2,2-4.5,2.8-6.8
	c0.5-1.8,0.8-3.6,1-5.4c0.3-1.9,1.9-3.2,3.8-3.1c1.3,0.1,2.5,0.6,3.5,1.4c1.8,1.6,2.8,3.9,3,6.3c0.1,2.4,0,4.8-0.5,7.1
	c1.8,3.9,3.1,8,3.8,12.2c0.9-3.4,1.4-6.7,2.3-10.1c0.2-0.1,0.1-0.4,0.3-0.5c-1.7-3.1-0.4-3-3.9-10c-5.8-11.6-12.2-22.8-17.2-37.6
	c-0.4-1.4-0.5-2.8-0.2-4.2c1.2-4.4,5.7-3.7,7.8-1.3c0.6,0.6,1,1.3,1.4,2.1c3,6.2,6.6,12.2,10.8,17.8l12,15.8c0,0,3.6-3.4,4.1-4.8
	l0,0c0.5-1.4,0-12.7,0-12.7s-0.7,2.2-2.6,2.2c-1.4,0-4.1,1-6.3-1.1c-1.7-1.8-2-4.5-0.6-6.5l4.5-7c2.1-1.9,5-2.4,7.7-1.4
	c3.3,1.4,6.4,3.2,9.1,5.5c2.6-0.2,5.2,0.1,7.7,1c3.6,1.5,7.6,6,7.6,6s4.1,0,6,1.2c0.5,0.3,7.3,9.5,5.6,17.2
	c-1,4.6-1.4,11.1-1.9,12.9l-0.1,44.2l8.3,29.3"/>
<path class="st14" d="M324,307.6c1.8,6.5,2.7,13.2,2.7,20c-0.1,1.1,0.1,2.3,0.4,3.4c0.3,1.1,1.2,2,2.3,2.3"/>
<path class="st14" d="M338.1,314.2c3,6.3-0.1,20.2,0.1,21.2c0.2,1,0.8,1.9,1.7,2.4"/>
<path class="st14" d="M312.3,306.7c-0.4,2-0.6,4.3-1,6.3c-2.4-2-3.8-4.9-4-8"/>
<path class="st14" d="M293.2,360.1L291,361"/>
<path class="st14" d="M293.7,361.8c-0.3,1.7-0.3,3.4,0,5.1"/>
<path class="st14" d="M306.4,343.1c0.8,1.4,1.6,2.9,2.4,4.3"/>
<path class="st14" d="M311,327.4l2.4-3.4"/>
<path class="st14" d="M344.4,343.1l-0.7,2.6"/>
<path class="st14" d="M338.6,335.9c0.7-2.2,1.4-4.5,2.1-6.7"/>
<path class="st14" d="M345.6,324c1.3-0.7,2.9-0.2,3.6,1.1"/>
<path class="st14" d="M331.3,312.5c1.7-0.5,3.5-0.1,4.8,1.1"/>
<path class="st14" d="M286.7,319.2c1.6-1.7,3.9-2.6,6.2-2.3"/>
<path class="st14" d="M277.7,300.3c1.4-1,3.2-1.5,5-1.2"/>
<path class="st14" d="M279.6,345.1c-1.2,0.9-2.2,2-2.9,3.3"/>
<path class="st14" d="M280.5,340.5c1.6-1.1,4.1,1.4,5.5,0.1c0.5-0.6,0.7-1.4,0.5-2.2c-0.2-0.7-0.3-1.5-0.3-2.3"/>
<path class="st14" d="M325.1,333.6c1.9,4,2.3,8.6,1.1,12.8"/>
<path class="st14" d="M336.7,339.8c0.3,1.9,0,3.8-1,5.5"/>
<path class="st3" d="M240.1,354.8c0.1,0.7,0.1,1.4-0.1,2.1c-0.6,3-2.5,11.8-3.2,16.6c-0.8,5.9-10.3,24-10.3,24s-8.7,10.8-13.2,16.5
	c-2.2,2.8-5.6,14-8.6,24.7c-3.7-1.1-7.4-2.3-11-3.6c-3-1.1-6-2.2-9-3.4c-5.4-2.2-10.6-4.8-15.6-7.6c1.7-6,2.8-10.7,2.8-10.9
	c-0.1-0.6,3.6-7.6,3.6-7.6l-3.1-41.5l-1.9-6.3c-1-3.3-1.6-6.6-1.8-10c-0.4-5.1,0-10.3,1.3-15.3l5.4-8.1l2.5-0.2l7.9-11
	c0,0,4.2-1.3,5.3,1.9s-3.5,9.2-3.5,9.2l-1.6,9.9l3.8,9.2l2,0.7c0,0,0.7-16.3,0.2-19.5l4.1-14.8c1.2-2.4,2.3-4.9,3.3-7.5
	c0.8-2.5,5.2-5,7.8-0.6c0.9,1.6,1,3.5,0.4,5.3c-1.1,3-1.9,5.5-1.9,5.5s-1,12.6-1.2,12.9s1.9,18.7,1.9,18.7l1.6,0.7l0.6-17.5
	l3.4-16.5c0,0-0.3-7.9,5.3-7c1.8-0.1,3.4,0.9,4.1,2.6c1.5,2.9,0.1,21.8,0.1,21.8l1.4,19.6l2.2,15.1l2.6-10.4c0,0,0.1-14.9,9.5-16.1
	c0,0,2.8-0.5,3.4,1.4s-1.4,5.9-1.1,9.7C239.5,350.2,239.9,353.2,240.1,354.8z"/>
<path class="st8" d="M237.2,336.4c-0.4-2-3.2-1.7-3.2-1.7c-9.4,0.6-10.7,15.4-10.7,15.4l-3.4,10.1l-1-15.3l0.1-19.7
	c0,0,2.9-18.8,1.6-21.8c-0.6-1.7-2.1-2.8-3.9-2.9c-5.5-1.4-5.8,6.5-5.8,6.5l-4.6,16.2l-1.9,17.5l-1.6-0.8c0,0-0.8-18.5-0.4-18.8
	s2.2-12.8,2.2-12.8s1.1-2.3,2.3-5.3c0.8-1.7,0.8-3.6,0-5.3c-2.2-4.5-6.9-2.4-7.8,0c-1.1,2.5-2.4,4.9-3.8,7.2l-5.3,14.5
	c0.2,3.3-1.7,19.5-1.7,19.5l-1.9-0.9l-3.1-9.5l2.3-9.7c0,0,5.1-5.6,4.2-8.9s-5.2-2.3-5.2-2.3l-8.7,10.3h-2.6l-6,7.6
	c-2.7,8.2-3.2,16.9-1.4,25.3l1.4,6.4v41.6c0,0-4.1,6.7-4.1,7.3c0,0.3-1.7,5.5-4.1,12.1c10.4,6.1,19.3,10.8,25.6,13.3
	c3,1.2,6,2.3,9,3.4c3.8-10.7,8.2-22.1,10.7-24.8c4.9-5.3,14.4-15.4,14.4-15.4s10.8-17.4,12.1-23.1c1-4.7,3.6-13.4,4.5-16.3
	c0.2-0.7,0.3-1.4,0.2-2.1c-0.1-1.6-0.2-4.6-0.2-7.3C235.4,342.2,237.6,338.4,237.2,336.4z"/>
<g>
	<defs>
		<path id="SVGID_00000176016758926323046630000011672703930904508071_" d="M237.2,336.4c-0.4-2-3.2-1.7-3.2-1.7
			c-9.4,0.6-10.7,15.4-10.7,15.4l-3.4,10.1l-1-15.3l0.1-19.7c0,0,2.9-18.8,1.6-21.8c-0.6-1.7-2.1-2.8-3.9-2.9
			c-5.5-1.4-5.8,6.5-5.8,6.5l-4.6,16.2l-1.9,17.5l-1.6-0.8c0,0-0.8-18.5-0.4-18.8s2.2-12.8,2.2-12.8s1.1-2.3,2.3-5.3
			c0.8-1.7,0.8-3.6,0-5.3c-2.2-4.5-6.9-2.4-7.8,0c-1.1,2.5-2.4,4.9-3.8,7.2l-5.3,14.5c0.2,3.3-1.7,19.5-1.7,19.5l-1.9-0.9l-3.1-9.5
			l2.3-9.7c0,0,5.1-5.6,4.2-8.9s-5.2-2.3-5.2-2.3l-8.7,10.3h-2.6l-6,7.6c-2.7,8.2-3.2,16.9-1.4,25.3l1.4,6.4v41.6
			c0,0-4.1,6.7-4.1,7.3c0,0.3-1.7,5.5-4.1,12.1c10.4,6.1,19.3,10.8,25.6,13.3c3,1.2,6,2.3,9,3.4c3.8-10.7,8.2-22.1,10.7-24.8
			c4.9-5.3,14.4-15.4,14.4-15.4s10.8-17.4,12.1-23.1c1-4.7,3.6-13.4,4.5-16.3c0.2-0.7,0.3-1.4,0.2-2.1c-0.1-1.6-0.2-4.6-0.2-7.3
			C235.4,342.2,237.6,338.4,237.2,336.4z"/>
	</defs>
	<clipPath id="SVGID_00000028286970882208983170000001596029046567341489_">
		<use xlink:href="#SVGID_00000176016758926323046630000011672703930904508071_"  style="overflow:visible;"/>
	</clipPath>
	<g style="clip-path:url(#SVGID_00000028286970882208983170000001596029046567341489_);">
		<path class="st1" d="M172.3,332.2c1.6-2,4.9-2.8,6.8-1c1,1.1,1.6,2.5,1.7,4c0.1,1.5,0.7,2.9,1.5,4.1c1,1.1,2.9,1.6,3.9,0.5
			c0.1,2.2,0.3,4.4,0.4,6.6c2.3-4.1,3.5-8.7,3.4-13.4c0-2.3-0.4-4.6,0.1-6.8s2.2-4.4,4.5-4.5c2.5-0.1,4.5,2.3,5,4.8s-0.1,5-0.2,7.5
			c-0.2,3.9,0.5,7.7,2.2,11.2l1.6-3.2c0.5,2.2,1,4.3,1.4,6.5c0.4-4.7,0.8-9.5,1.2-14.2c0-1.3,0.3-2.7,0.9-3.9c0.6-1.2,1.8-2,3.2-2
			c1.8,0.2,2.8,2.1,3.4,3.8c4.5,12.8,2.6,26.7,0.7,40.1c1.2,0.2,2.3-1,2.6-2.3c0.1-1.3,0.4-2.5,0.7-3.7c0.5-1.2,1.9-2.2,3-1.5
			c1.6,1,0.5,4.1,2.1,4.9c0.5-4,2.1-7.7,4.5-10.9c1.1-1.4,2.8-2.9,4.5-2.4c1.3,0.5,2.2,1.6,2.4,3c0.2,1.3,2.1-4.2,1.8-2.9
			c0.8-7.7-0.8-8.5,0-16.2c0.1-1.4,2.4-3.8,1.4-4.8s-3.6-2.4-4.8-1.8s-5.1,2.5-5.9,3.6c-4.9,6.8-4.6,16.6-6.1,24.9
			c-1.3-12.6-2.6-25.3-0.3-37.7c1.3-6.9,3.6-14,1.4-20.6c-1-3-3.7-6-6.8-5.5c-2.5,0.5-4,3-5.1,5.4c-3.4,7.9-5,16.5-6.5,25l5.6-25.7
			c0.6-2.2,0.8-4.5,0.6-6.7c-0.4-2.2-1.9-4.4-4.2-4.9s-4.4,0.8-6.1,2.4c-6,5.4-8.2,13.7-10.1,21.6c0.8-2,1.2-4.1,1.2-6.3
			c-0.2-2.1-1.6-4.3-3.7-4.8c-2.7-0.6-5.2,1.8-6.4,4.4s-1.8,5.4-3.7,7.5c-1.4-1.6-4-1.5-5.7-0.3c-1.7,1.3-2.9,3-3.6,5
			c-3.1,7.1-4.5,14.8-3.9,22.5c1.5-3.1,4.8-5,8.2-4.7c-0.2-1.7-0.4-3.4-0.6-5.1"/>
		<path class="st1" d="M178.9,348.5c-0.1,1.3-0.2,2.5-0.3,3.8c0.4-0.9,1.5-1.3,2.4-0.9c0.1,0.1,0.3,0.1,0.4,0.2
			c0-0.8,0.2-1.6,0.6-2.3c0.3-0.8,0.4-1.8-0.4-2.2s-1.7,0.6-2.2,1.4c0-0.3-0.1-0.6-0.1-0.9L178.9,348.5z"/>
		<path class="st1" d="M193.2,346.2c-1,1.2-1.7,2.6-2,4.2c0.4-0.5,0.9-0.8,1.5-1.1c0.6-0.2,1.2-0.1,1.7,0.4c0.2,0.3,0.3,0.7,0.6,0.9
			c0.4,0.2,0.8,0,1-0.4c0.2-0.3,0.3-0.7,0.2-1.1c0.1-0.7,0.1-1.5-0.1-2.2c-0.2-0.7-0.7-1.3-1.4-1.5c-0.7-0.2-1.4,0.3-1.6,1
			c0,0,0,0.1,0,0.1L193.2,346.2z"/>
		<path class="st1" d="M207.1,349.7c-1.1,1.5-1.8,3.2-2.1,5c0.7-0.2,1.4-0.5,1.9-1c0.6-0.5,1.2-0.9,2-1c0.8-0.1,1.5,0.4,1.5,1.2
			c0,0,0,0,0,0c-0.1-0.8-0.1-1.7,0.1-2.5c0.1-0.8,0.1-1.7-0.2-2.5c-0.3-0.8-1.1-1.4-1.9-1.4c-0.7,0-1.3,0.7-1.3,1.4
			c0,0.1,0,0.3,0.1,0.4L207.1,349.7z"/>
		<path class="st1" d="M168.9,354.7c-0.8,1.4-1.2,3.1-1.2,4.7c0.1-0.8,0.7-1.4,1.5-1.5c0.8-0.1,1.5,0.1,2.1,0.6
			c0.2-0.7,0.2-1.5,0.1-2.3c-0.1-0.8-0.7-1.4-1.5-1.6c-0.8-0.1-1.6,0.6-1.4,1.4l-0.2-0.6L168.9,354.7z"/>
		<path class="st11" d="M172.3,332.2c1.6-2,4.9-2.8,6.8-1c1,1.1,1.6,2.5,1.7,4c0.1,1.5,0.7,2.9,1.5,4.1c1,1.1,2.9,1.6,3.9,0.5
			c0.1,2.2,0.3,4.4,0.4,6.6c2.3-4.1,3.5-8.7,3.4-13.4c0-2.3-0.4-4.6,0.1-6.8s2.2-4.4,4.5-4.5c2.5-0.1,4.5,2.3,5,4.8s-0.1,5-0.2,7.5
			c-0.2,3.9,0.5,7.7,2.2,11.2l1.6-3.2c0.5,2.2,1,4.3,1.4,6.5c0.4-4.7,0.8-9.5,1.2-14.2c0-1.3,0.3-2.7,0.9-3.9c0.6-1.2,1.8-2,3.2-2
			c1.8,0.2,2.8,2.1,3.4,3.8c4.5,12.8,2.6,26.7,0.7,40.1c1.2,0.2,2.3-1,2.6-2.3c0.1-1.3,0.4-2.5,0.7-3.7c0.5-1.2,1.9-2.2,3-1.5
			c1.6,1,0.5,4.1,2.1,4.9c0.5-4,2.1-7.7,4.5-10.9c1.1-1.4,2.8-2.9,4.5-2.4c1.3,0.5,2.2,1.6,2.4,3c0.2,1.3,2.1-4.2,1.8-2.9
			c0.8-7.7-0.8-8.5,0-16.2c0.1-1.4,2.4-3.8,1.4-4.8s-3.6-2.4-4.8-1.8s-5.1,2.5-5.9,3.6c-4.9,6.8-4.6,16.6-6.1,24.9
			c-1.3-12.6-2.6-25.3-0.3-37.7c1.3-6.9,3.6-14,1.4-20.6c-1-3-3.7-6-6.8-5.5c-2.5,0.5-4,3-5.1,5.4c-3.4,7.9-5,16.5-6.5,25l5.6-25.7
			c0.6-2.2,0.8-4.5,0.6-6.7c-0.4-2.2-1.9-4.4-4.2-4.9s-4.4,0.8-6.1,2.4c-6,5.4-8.2,13.7-10.1,21.6c0.8-2,1.2-4.1,1.2-6.3
			c-0.2-2.1-1.6-4.3-3.7-4.8c-2.7-0.6-5.2,1.8-6.4,4.4s-1.8,5.4-3.7,7.5c-1.4-1.6-4-1.5-5.7-0.3c-1.7,1.3-2.9,3-3.6,5
			c-3.1,7.1-4.5,14.8-3.9,22.5c1.5-3.1,4.8-5,8.2-4.7c-0.2-1.7-0.4-3.4-0.6-5.1"/>
		<g class="st12">
			<path class="st1" d="M178.9,348.5c-0.1,1.3-0.2,2.5-0.3,3.8c0.4-0.9,1.5-1.3,2.4-0.9c0.1,0.1,0.3,0.1,0.4,0.2
				c0-0.8,0.2-1.6,0.6-2.3c0.3-0.8,0.4-1.8-0.4-2.2s-1.7,0.6-2.2,1.4c0-0.3-0.1-0.6-0.1-0.9L178.9,348.5z"/>
			<path class="st1" d="M193.2,346.2c-1,1.2-1.7,2.6-2,4.2c0.4-0.5,0.9-0.8,1.5-1.1c0.6-0.2,1.2-0.1,1.7,0.4
				c0.2,0.3,0.3,0.7,0.6,0.9c0.4,0.2,0.8,0,1-0.4c0.2-0.3,0.3-0.7,0.2-1.1c0.1-0.7,0.1-1.5-0.1-2.2c-0.2-0.7-0.7-1.3-1.4-1.5
				c-0.7-0.2-1.4,0.3-1.6,1c0,0,0,0.1,0,0.1L193.2,346.2z"/>
			<path class="st1" d="M207.1,349.7c-1.1,1.5-1.8,3.2-2.1,5c0.7-0.2,1.4-0.5,1.9-1c0.6-0.5,1.2-0.9,2-1c0.8-0.1,1.5,0.4,1.5,1.2
				c0,0,0,0,0,0c-0.1-0.8-0.1-1.7,0.1-2.5c0.1-0.8,0.1-1.7-0.2-2.5c-0.3-0.8-1.1-1.4-1.9-1.4c-0.7,0-1.3,0.7-1.3,1.4
				c0,0.1,0,0.3,0.1,0.4L207.1,349.7z"/>
			<path class="st1" d="M168.9,354.7c-0.8,1.4-1.2,3.1-1.2,4.7c0.1-0.8,0.7-1.4,1.5-1.5c0.8-0.1,1.5,0.1,2.1,0.6
				c0.2-0.7,0.2-1.5,0.1-2.3c-0.1-0.8-0.7-1.4-1.5-1.6c-0.8-0.1-1.6,0.6-1.4,1.4l-0.2-0.6L168.9,354.7z"/>
		</g>
	</g>
</g>
<path class="st14" d="M159.1,418.3c2.4-6.5,4.1-11.8,4.1-12.1c0-0.6,4.1-7.3,4.1-7.3v-41.6l-1.4-6.4c-1.8-8.4-1.3-17.1,1.4-25.3
	l6-7.6h2.6l8.7-10.4c0,0,4.3-1,5.2,2.3s-4.2,8.9-4.2,8.9l-2.3,9.7l3.1,9.5l1.9,0.9c0,0,1.9-16.2,1.7-19.5l5.3-14.5
	c1.4-2.3,2.7-4.7,3.8-7.2c1-2.4,5.6-4.5,7.8,0c0.8,1.7,0.8,3.6,0,5.3c-1.3,3-2.3,5.3-2.3,5.3s-1.9,12.5-2.2,12.8s0.4,18.8,0.4,18.8
	l1.6,0.8l1.9-17.5l4.6-16.2c0,0,0.3-7.9,5.8-6.5c1.8,0.1,3.3,1.2,3.9,2.9c1.3,3-1.6,21.8-1.6,21.8l-0.1,19.7l1,15.3l3.4-10.1
	c0,0,1.3-14.8,10.7-15.4c0,0,2.8-0.3,3.2,1.7s-1.8,5.8-1.8,9.6c0,2.7,0.1,5.7,0.2,7.3c0,0.7,0,1.4-0.2,2.1c-0.9,3-3.4,11.6-4.5,16.3
	c-1.3,5.8-12.1,23.1-12.1,23.1s-9.5,10.2-14.4,15.4c-2.4,2.7-6.9,14.1-10.7,24.8"/>
<path class="st4" d="M188,340.5c0.6,2,0,4.2-1.4,5.7"/>
<path class="st4" d="M171.8,354.5c1.4-2.1,2.7-5,2.3-7.5c-0.7-4.9-3-10.6-2-15.4c0.6-3.1,1.3-6.2,1.9-9.3"/>
<path class="st14" d="M211.7,308.1c1.6-0.4,3.4-0.4,5,0c0-0.5,0-0.9,0.1-1.4"/>
<path class="st14" d="M198.6,301.9c1.5,1,3.5,0.6,4.4-0.8c0.4-0.5,0.6-1.2,0.6-1.8"/>
<path class="st14" d="M234.7,336.6c-2.9,0.7-4.8,3.4-4.6,6.3l2.4,0.7"/>
<path class="st4" d="M202.5,337.8c0.1,1.7-0.1,5.7,0,7.4"/>
<path class="st4" d="M204.4,340.1c-0.2,2.7-0.4,5.5-0.6,8.2c0-0.4,0-0.7,0-1"/>
<path class="st4" d="M219.6,363.3c0.7,3,0.4,6.2-0.9,9.1"/>
<path class="st14" d="M194.3,348.9c-2.2,2.4-1.9,8.1-0.3,11.3"/>
<path class="st14" d="M210.4,352.9c0,2.7-0.9,5.3-2.7,7.3"/>
<path class="st14" d="M178.4,350c-0.4,2.4,0.2,4.9,1.5,7"/>
<path class="st14" d="M169.1,357.5c-0.1,1.9,0.4,3.8,1.5,5.3"/>
<path class="st14" d="M181.9,311.4c1.2-0.5,2.6-0.3,3.5,0.6l1.2-1.6"/>
<path class="st14" d="M192.1,318.8c1.7-1,4-0.7,5.3,0.9"/>
<path class="st14" d="M208.1,323.8c1.8-0.8,3.9-0.8,5.7,0.1"/>
<path class="st14" d="M172.5,332.1c1.1-1.8,3.1-2.8,5.2-2.6"/>
<path class="st14" d="M165.8,341.7c0.1-1.3,1.1-2.4,2.4-2.7"/>
<g id="freepik--Coffee--inject-18">
	<circle class="st16" cx="423.4" cy="228.4" r="41.5"/>
	<path class="st3" d="M470.4,229.5c-8.8,14.5-12,12.5-42.1,27c-15.3,7.3-30.1-16.2-20.1-40.4c0.5-1.2,4.8-7.1,4.8-7.1
		c2.7-11.9,14.5-19.3,26.4-16.6c4.8,1.1,9,3.7,12.1,7.5c5.8-5,13.7-6.9,21.2-5.1c0.4,1,0.7,2,1,3c0.1,0.4,0.2,0.8,0.4,1.1
		c0.4,1.2,0.7,2.3,1.1,3.5c0.7,2.2,1.3,4.5,1.8,6.8c-3.2-1-6.8-0.8-9.8,0.6c-2.2,1.1-4.1,2.9-6.4,3.7s-5.5,0.4-6.4-1.9
		c1.1,4.6,6,3.2,10.6,4.1C472.2,217.1,474.1,223.4,470.4,229.5z"/>
	<path class="st17" d="M456.8,222.3c0,0,7.4-1,10.9-0.5c1.7,0.2,3.2,1.1,4.3,2.4c0.3,0.4,0.5,0.8,0.5,1.3l0.4,5.8
		c0,0.7-0.2,1.3-0.6,1.8c-1.5,1.5-5.8,4.3-18.8,5.2C435.3,239.9,456.8,222.3,456.8,222.3z"/>
	<path class="st17" d="M451.3,207.3c4,5,6.2,11.2,6.1,17.7c0,6.9-8,30.5-28.5,33.4c-21.7,3-39.1-15.5-35.4-37.9
		C396.1,205.1,433.9,185.7,451.3,207.3z"/>
	<ellipse class="st8" cx="424.8" cy="223.4" rx="31.5" ry="29.8"/>
	<ellipse class="st9" cx="424.8" cy="225" rx="25.8" ry="24.4"/>
	<path class="st16" d="M456.3,223.4c0-16.4-14.1-29.8-31.5-29.8s-31.5,13.4-31.5,29.8"/>
	<path class="st16" d="M448,243.6c5.3-5.4,8.3-12.6,8.3-20.2"/>
	<path class="st16" d="M402.8,244.7c6,5.5,13.9,8.6,22,8.5c5.1,0,10.1-1.1,14.6-3.4"/>
	<path class="st16" d="M398.2,239.4c0.4,0.6,0.9,1.2,1.3,1.8"/>
	<path class="st16" d="M393.4,223.4c0,4.4,1,8.8,3,12.7"/>
	<path class="st17" d="M471,231.6c0,0-5.6-3.9-14.7-0.4"/>
	<path class="st17" d="M466.2,234.3c-3.8,1-7.7,1.6-11.6,1.8"/>
	<path class="st17" d="M469.1,233.1c-0.4,0.3-0.9,0.6-1.4,0.7"/>
	<path class="st8" d="M474.1,198.8c-0.1-0.4-0.2-0.8-0.4-1.1c-1.9-5.9-4.4-12.4-7.4-19.3c-0.5-1.3-1.1-2.6-1.7-3.9l-0.7,0.1
		c-2.9,0.3-5.9,0.6-8.2,2.3s-3.8,5.1-2.2,7.5s5.4,3.8,4.8,6.6c-6.4,3.6-14.2,3.2-21.4,5c-4.3,1.1-8.4,3-11.9,5.6l0,0
		c-1.1,0.8-2.2,1.8-3.2,2.7c-0.5,0.4-0.9,0.9-1.3,1.4l0,0c-0.6,0.7-1,1.6-1.1,2.5c-0.2,2.7,2.2,4.5,4.8,5.6c0.3,0.1,0.4,0.5,0.3,0.8
		c-0.1,0.2-0.2,0.3-0.3,0.3c-1.7,0.6-3.3,1.5-4.7,2.7l0,0c-0.5,0.4-0.5,1.2-0.1,1.6c0.3,0.3,0.7,0.4,1.1,0.4h0.4c1-0.1,2,0,3,0.4
		c1.4,0.3,2.4,1.5,2.7,2.9c0.2,2-2.1,3.9-5.1,4.1c-0.7,0.1-0.2,0.9,0.9,1.1c2.1,0.3,4.3,0.1,6.4-0.5c2.5-0.6,5.2-1.5,6.6-3.6
		c0.6-0.9,0.8-2.1,0.6-3.2c-0.1-1.5-1.2-2.7-2.7-2.9c4.6-0.5,9.2-1.5,13.7-2.8l0,0l1.4-0.4c1.4-0.4,2.7-0.9,3.9-1.7
		c0.7-0.5,1.3-1.1,1.7-1.9c1-2-0.4-5.2-2.6-4.8c6.5-2.5,13.3-4,19.8-6.3C472,199.7,473.1,199.3,474.1,198.8z"/>
</g>
<path class="st3" d="M424.6,112.3c-6.2,5.3-12.8,10-19.9,14c-36.4,21.5-77.5,34.4-119.4,40.7s-84.4,6.1-126.6,2.6
	c-8.3-0.7-16.7-1.5-24.3-4.9c-6.4-2.8-12.3-7.8-15-14.2c9.1-10.4,17.6-20.9,27.1-30.8c2.3-2.4,4.6-4.7,6.9-7c2-1.9,4-3.8,6.1-5.6
	c2.4-2.1,4.8-4.2,7.4-6.2c3.6-2.8,7.3-5.4,11.3-7.9c1-0.6,2-1.2,2.9-1.8c99.7-62,173.1-41.7,222.1,0c3.7,3.2,7.3,6.4,10.7,9.8
	c2.1,2,4.1,4.1,6,6.2c0.2,0.2,0.4,0.4,0.6,0.7C422,109.4,423.3,110.8,424.6,112.3z"/>
<path class="st17" d="M428.6,102.4l-335.5,1.5l5.1-7.6c2.4-3.7,6.5-5.8,10.9-5.8h303.6c4,0,7.7,1.8,10.2,4.9L428.6,102.4z"/>
<path class="st18" d="M248.3,152.7h18.4c18.9,0,34.1,15.3,34.1,34.2v18.4c0,18.9-15.3,34.1-34.1,34.1h-18.4
	c-18.9,0-34.1-15.3-34.1-34.1v-18.4C214.2,168,229.4,152.7,248.3,152.7z"/>
<path class="st19" d="M229.9,203.3v12.3c0,3.9,3.1,7,7,7h42.3c3.8,0,7-3.1,7-6.9c0-5.6,0.4-12.4,0.4-12.4L229.9,203.3z"/>
<path class="st20" d="M384.6,207.4H137.4c-2.6,0-4.9-1.6-5.9-4l-38.1-97.9c-0.8-2,0.2-4.3,2.2-5.1c0.4-0.2,0.9-0.3,1.4-0.3h328
	c2.2,0,3.9,1.7,3.9,3.9c0,0.5-0.1,1-0.3,1.4l-38.1,97.9C389.6,205.8,387.2,207.4,384.6,207.4z"/>
<polygon class="st9" points="386.5,198.9 135,198.9 100.4,106.4 420.9,106.4 "/>
<rect x="230.2" y="207.3" class="st9" width="56.1" height="3.8"/>
<path class="st1" d="M349.7,195H172.1c-1,0-1.9-0.4-2.1-1l-25.3-80.3c-0.3-0.9,0.5-1.6,1.8-1.6h228.7c1.3,0,2,0.7,1.8,1.6L351.8,194
	C351.6,194.5,350.7,195,349.7,195z"/>
<polygon class="st9" points="349.1,193.1 172.8,193.1 151.3,122.6 370.5,122.6 "/>
<path class="st8" d="M198.1,140.1h-33.4c-0.8,0-1.4,0.4-1.2,1c0.3,0.7,1,1.1,1.8,1h33.2c0.8,0,1.4-0.4,1.3-1
	S198.9,140.1,198.1,140.1z"/>
<path class="st8" d="M199.2,146.2h-28.4c-0.8,0-1.4,0.4-1.2,1c0.3,0.6,1,1,1.7,0.9h28.2c0.8,0,1.4-0.4,1.3-0.9
	S200,146.2,199.2,146.2z"/>
<path class="st21" d="M200.3,152.1h-32.2c-0.8,0-1.3,0.4-1.2,0.9c0.3,0.6,1,1,1.7,0.9h32c0.8,0,1.4-0.4,1.3-0.9
	S201.1,152.1,200.3,152.1z"/>
<path class="st8" d="M201.3,157.8h-18.9c-0.8,0-1.3,0.4-1.2,0.9s0.9,0.9,1.6,0.9h18.8c0.8,0,1.3-0.4,1.2-0.9
	S202.1,157.8,201.3,157.8z"/>
<path class="st8" d="M202.3,163.3h-31.1c-0.8,0-1.3,0.4-1.1,0.9s0.9,0.9,1.6,0.9h30.9c0.8,0,1.3-0.4,1.2-0.9
	S203.1,163.3,202.3,163.3z"/>
<path class="st8" d="M203.3,168.6h-25.1c-0.8,0-1.3,0.4-1.1,0.8s0.8,0.8,1.6,0.8h25c0.8,0,1.3-0.4,1.2-0.8S204.1,168.6,203.3,168.6z
	"/>
<path class="st8" d="M204.2,173.7h-24.7c-0.8,0-1.2,0.4-1.1,0.8s0.8,0.8,1.6,0.8h24.6c0.7,0,1.3-0.4,1.2-0.8S205,173.7,204.2,173.7z
	"/>
<path class="st8" d="M205.2,178.7h-27c-0.7,0-1.2,0.4-1.1,0.8s0.8,0.8,1.5,0.8h26.8c0.7,0,1.3-0.4,1.2-0.8S205.9,178.7,205.2,178.7z
	"/>
<path class="st21" d="M206.1,183.5h-17.4c-0.7,0-1.2,0.3-1.1,0.8s0.8,0.8,1.5,0.8h17.3c0.7,0,1.2-0.3,1.2-0.8
	S206.8,183.5,206.1,183.5z"/>
<path class="st21" d="M196.9,133.8h-24.9c-0.8,0-1.4,0.5-1.2,1c0.3,0.7,1,1.1,1.8,1h24.7c0.8,0,1.4-0.4,1.3-1
	C198.4,134.1,197.7,133.7,196.9,133.8z"/>
<path class="st8" d="M195.7,127.3h-34.6c-0.9,0-1.4,0.5-1.2,1.1c0.3,0.7,1.1,1.1,1.8,1.1h34.4c0.9,0,1.5-0.5,1.4-1.1
	C197.2,127.6,196.5,127.2,195.7,127.3z"/>
<path class="st8" d="M206.9,188.1h-28.7c-0.7,0-1.2,0.3-1.1,0.7s0.8,0.7,1.5,0.7h28.6c0.7,0,1.2-0.3,1.1-0.7
	S207.6,188.1,206.9,188.1z"/>
<polygon class="st21" points="209.8,142.4 216.3,142.4 216,139.9 209.4,139.9 "/>
<polygon class="st21" points="210.7,148.4 217.1,148.4 216.8,146 210.4,146 "/>
<polygon class="st21" points="211.6,154.2 217.8,154.2 217.5,151.9 211.2,151.9 "/>
<polygon class="st21" points="212.4,159.8 218.6,159.8 218.3,157.6 212.1,157.6 "/>
<polygon class="st21" points="213.2,165.2 219.3,165.2 219,163.1 212.9,163.1 "/>
<polygon class="st21" points="214,170.4 220,170.4 219.7,168.4 213.7,168.4 "/>
<polygon class="st21" points="214.8,175.5 220.6,175.5 220.4,173.5 214.5,173.5 "/>
<polygon class="st21" points="215.5,180.4 221.3,180.4 221,178.5 215.2,178.5 "/>
<polygon class="st21" points="216.2,185.2 221.9,185.2 221.7,183.3 216,183.3 "/>
<polygon class="st21" points="208.9,136.1 215.5,136.1 215.1,133.6 208.5,133.6 "/>
<polygon class="st21" points="207.9,129.6 214.6,129.6 214.3,127 207.5,127 "/>
<polygon class="st21" points="216.9,189.8 222.5,189.8 222.3,187.9 216.7,187.9 "/>
<path class="st8" d="M251.1,179.4c0-0.4,0.6-0.8,1.3-0.8h95.8c0.7,0,1.2,0.4,1.1,0.8c-0.3,0.5-0.9,0.8-1.5,0.8h-95.3
	C251.7,180.2,251.1,179.9,251.1,179.4z"/>
<path class="st8" d="M349.1,175.3h-53.1c-0.7,0-1.3-0.4-1.2-0.8s0.7-0.8,1.4-0.8h53.3c0.7,0,1.2,0.4,1.1,0.8
	C350.4,175.1,349.8,175.4,349.1,175.3z"/>
<path class="st21" d="M283.5,175.3H267c-0.7,0-1.3-0.4-1.3-0.8s0.6-0.8,1.4-0.8h16.6c0.7,0,1.3,0.4,1.3,0.8S284.2,175.3,283.5,175.3
	z"/>
<path class="st8" d="M317.9,170.2h-74.8c-0.8,0-1.4-0.4-1.4-0.8s0.6-0.8,1.3-0.8h75.2c0.8,0,1.3,0.4,1.2,0.8
	S318.7,170.2,317.9,170.2z"/>
<path class="st21" d="M227.4,168.6h5.3c0.8,0,1.4,0.4,1.4,0.8s-0.5,0.8-1.3,0.8h-5.3c-0.8,0-1.4-0.4-1.4-0.8
	S226.7,168.6,227.4,168.6z"/>
<path class="st8" d="M328.8,164.1c-0.1,0.5-0.8,0.9-1.6,0.9h-70.5c-0.8,0-1.4-0.4-1.4-0.9s0.6-0.9,1.4-0.9h70.9
	C328.3,163.3,328.9,163.6,328.8,164.1z"/>
<path class="st8" d="M226.9,163.3h20c0.8,0,1.4,0.4,1.4,0.9s-0.6,0.9-1.4,0.9h-19.9c-0.8,0-1.4-0.4-1.5-0.9S226.1,163.3,226.9,163.3
	z"/>
<path class="st8" d="M226.3,157.8h76.9c0.8,0,1.4,0.4,1.3,0.9s-0.8,0.9-1.5,0.9h-76.5c-0.8,0-1.4-0.4-1.5-0.9
	S225.5,157.8,226.3,157.8z"/>
<path class="st8" d="M276.2,153.9c-0.8,0-1.4-0.4-1.4-0.9s0.7-0.9,1.5-0.9h40.6c0.8,0,1.4,0.4,1.3,0.9s-0.8,0.9-1.6,0.9H276.2z"/>
<path class="st8" d="M225.7,152.1h35.1c0.8,0,1.4,0.4,1.4,0.9s-0.6,0.9-1.4,0.9h-34.9c-0.8,0-1.5-0.4-1.5-0.9
	S224.9,152.1,225.7,152.1z"/>
<path class="st8" d="M356.9,148.1h-96.7c-0.8,0-1.5-0.4-1.5-0.9s0.6-1,1.5-1h97.2c0.8,0,1.3,0.4,1.2,1
	C358.3,147.8,357.6,148.2,356.9,148.1z"/>
<path class="st8" d="M358.6,142.1h-85.1c-0.8,0-1.5-0.4-1.5-1s0.7-1,1.5-1h85.6c0.8,0,1.4,0.4,1.2,1
	C360.1,141.8,359.4,142.2,358.6,142.1z"/>
<path class="st21" d="M360.5,135.9h-17.8c-0.8,0-1.4-0.4-1.3-1c0.3-0.7,1-1.1,1.8-1H361c0.8,0,1.4,0.5,1.2,1
	C361.9,135.5,361.2,135.9,360.5,135.9z"/>
<path class="st8" d="M330.2,135.9h-65.4c-0.8,0-1.5-0.4-1.5-1s0.7-1,1.5-1h65.8c0.8,0,1.4,0.5,1.3,1
	C331.6,135.5,330.9,135.9,330.2,135.9z"/>
<path class="st8" d="M229,183.5h60.4c0.7,0,1.3,0.3,1.2,0.8s-0.6,0.8-1.4,0.8h-60.1c-0.7,0-1.3-0.3-1.4-0.8S228.3,183.5,229,183.5z"
	/>
<path class="st8" d="M229.5,188.1h92.8c0.7,0,1.2,0.3,1.1,0.7s-0.7,0.7-1.4,0.7h-92.4c-0.7,0-1.3-0.3-1.4-0.7
	S228.8,188.1,229.5,188.1z"/>
<path class="st8" d="M326.9,129.4h-47.3c-0.9,0-1.5-0.5-1.5-1.1s0.7-1.1,1.6-1.1h47.5c0.9,0,1.5,0.5,1.4,1.1
	C328.4,129,327.7,129.5,326.9,129.4z"/>
<path class="st21" d="M266.2,129.4h-43c-0.9,0-1.6-0.5-1.7-1.1s0.6-1.1,1.4-1.1h43.2c0.9,0,1.5,0.5,1.5,1.1S267.1,129.4,266.2,129.4
	z"/>
<path class="st21" d="M302.9,183.5c0.7,0,1.3,0.3,1.2,0.8s-0.7,0.8-1.4,0.8H298c-0.7,0-1.2-0.3-1.2-0.8s0.7-0.8,1.4-0.8H302.9z"/>
<path class="st21" d="M245.5,179.4c0,0.4-0.6,0.8-1.3,0.8h-6.4c-0.7,0-1.4-0.4-1.4-0.8s0.5-0.8,1.3-0.8h6.4
	C244.9,178.7,245.5,179,245.5,179.4z"/>
<path class="st21" d="M322.3,158.7c-0.1,0.5-0.8,0.9-1.6,0.9h-7.4c-0.8,0-1.3-0.4-1.3-0.9s0.8-0.9,1.6-0.9h7.5
	C321.8,157.8,322.4,158.2,322.3,158.7z"/>
<path class="st21" d="M345.5,163.3c0.8,0,1.3,0.4,1.2,0.9c-0.3,0.6-1,0.9-1.6,0.9h-5.9c-0.8,0-1.3-0.4-1.2-0.9
	c0.3-0.6,0.9-0.9,1.6-0.9H345.5z"/>
<path class="st21" d="M248.5,148.1c-0.8,0-1.5-0.4-1.5-0.9s0.6-1,1.4-1h6.3c0.8,0,1.5,0.4,1.5,1s-0.6,0.9-1.4,0.9H248.5z"/>
<path class="st8" d="M162.6,117.3c0.5,1.1,0,2.3-1.1,2.8c-0.3,0.1-0.7,0.2-1,0.2c-1.8-0.1-3.4-1.3-3.9-3c-0.5-1.1,0-2.3,1.1-2.8
	c0.3-0.1,0.7-0.2,1-0.2C160.4,114.4,162,115.6,162.6,117.3z"/>
<path class="st8" d="M170.7,117.4c0.4,1.1-0.1,2.4-1.2,2.9c-0.3,0.1-0.6,0.2-1,0.1c-1.8-0.1-3.3-1.3-3.8-3c-0.4-1.1,0.1-2.4,1.3-2.9
	c0.3-0.1,0.6-0.2,0.9-0.1C168.6,114.5,170.2,115.7,170.7,117.4z"/>
<path class="st8" d="M178.9,117.3c0.4,1.2-0.2,2.5-1.4,2.9c-0.3,0.1-0.6,0.1-0.9,0.1c-1.8-0.1-3.3-1.3-3.8-3
	c-0.4-1.2,0.2-2.5,1.4-2.9c0.3-0.1,0.6-0.1,0.8-0.1C177,114.4,178.5,115.6,178.9,117.3z"/>
<polygon class="st22" points="100.4,106.4 127.3,178.5 159.8,106.4 "/>
<polygon class="st22" points="145.9,198.9 199.8,106.4 256.2,106.4 176.9,198.9 "/>
<polygon class="st22" points="280.6,106 196.5,198.9 209.4,198.9 296.5,106.4 "/>
<polygon class="st22" points="297.2,198.9 389.5,106.4 402.6,106.4 307.3,198.9 "/>
<g id="freepik--speech-bubbles--inject-18">
	<path class="st17" d="M171.9,239.1h-21.1c-2.8,0-5,2.2-5,5v10.3c0,2.8,2.2,5,5,5h0h5.5l4.2,9.5l5.9-9.5h5.5c2.8,0,5-2.2,5-5V244
		C176.9,241.3,174.6,239.1,171.9,239.1z"/>
	<path class="st9" d="M158.4,244.9c0-0.6,0.4-1,1-1c0.5,0,1,0.4,1,0.9c0,0.6-0.4,1-1,1C158.9,245.9,158.5,245.5,158.4,244.9z
		 M158.6,247h1.6v6.9h-1.6V247z"/>
	<path class="st9" d="M164.1,246.7v0.4h1.9v1.3h-1.8v5.5h-1.6v-5.5h-1.1v-1.3h1.1v-0.4c-0.1-1.2,0.8-2.3,2-2.4c0.1,0,0.3,0,0.4,0
		c0.5,0,1,0.1,1.5,0.4l-0.4,1.2c-0.3-0.2-0.6-0.3-0.9-0.3C164.5,245.6,164.1,245.9,164.1,246.7z"/>
	<path class="st17" d="M236.1,240.5H215c-2.8,0-5,2.2-5,5v10.3c0,2.8,2.2,5,5,5h0h5.5l4.2,9.5l5.9-9.5h5.5c2.8,0,5-2.2,5-5v-10.3
		C241.1,242.7,238.9,240.5,236.1,240.5z"/>
	<path class="st9" d="M219.5,252.4h-5.4c0.2,1,1.2,1.7,2.2,1.6c0.7,0,1.4-0.2,1.9-0.8l0.9,1c-1.5,1.5-3.9,1.5-5.4,0
		c-0.6-0.6-1-1.5-1.1-2.4c-0.1-1.9,1.4-3.5,3.3-3.5c0.1,0,0.2,0,0.2,0c1.8-0.1,3.4,1.4,3.5,3.2c0,0.1,0,0.2,0,0.3
		C219.5,252.1,219.5,252.3,219.5,252.4z M214.1,251.4h3.9c-0.1-1-1-1.7-1.9-1.7C215.1,249.6,214.2,250.3,214.1,251.4L214.1,251.4z"
		/>
	<path class="st9" d="M221,245.8h1.6v9.5H221V245.8z"/>
	<path class="st9" d="M224,254.6l0.6-1.2c0.7,0.4,1.5,0.7,2.4,0.7c1,0,1.4-0.3,1.4-0.8c0-1.3-4.2-0.1-4.2-2.8c0-1.3,1.2-2.1,3-2.1
		c0.9,0,1.8,0.2,2.6,0.6l-0.6,1.2c-0.6-0.4-1.3-0.5-2-0.5c-1,0-1.4,0.3-1.4,0.8c0,1.4,4.2,0.1,4.2,2.8c0,1.3-1.2,2.1-3.1,2.1
		C225.8,255.4,224.9,255.2,224,254.6z"/>
	<path class="st9" d="M237.8,252.4h-5.4c0.2,1,1.2,1.7,2.2,1.6c0.7,0,1.4-0.2,1.9-0.8l0.9,1c-1.5,1.5-3.9,1.5-5.4,0
		c-0.6-0.6-1-1.5-1.1-2.4c-0.1-1.9,1.4-3.5,3.3-3.5c0.1,0,0.2,0,0.2,0c1.8-0.1,3.4,1.4,3.5,3.2c0,0.1,0,0.2,0,0.3
		C237.8,252.1,237.8,252.3,237.8,252.4z M232.4,251.4h3.9c-0.1-1-1-1.7-1.9-1.7C233.3,249.6,232.5,250.4,232.4,251.4L232.4,251.4z"
		/>
	<path class="st17" d="M298.4,239.9h-21.1c-2.7,0-5,2.2-5,4.9v10.3c0,2.8,2.2,5,5,5l0,0h5.5l4.2,9.5l5.9-9.5h5.5c2.8,0,5-2.2,5-5
		l0,0v-10.3C303.4,242.1,301.1,239.9,298.4,239.9z"/>
	<path class="st9" d="M282.1,247.5v0.4h1.9v1.3h-1.8v5.5h-1.6v-5.5h-1.1v-1.3h1.1v-0.4c-0.1-1.2,0.8-2.3,2-2.4c0.1,0,0.3,0,0.4,0
		c0.5,0,1,0.1,1.5,0.4l-0.5,1.2c-0.3-0.2-0.6-0.3-0.9-0.3C282.5,246.4,282.1,246.8,282.1,247.5z"/>
	<path class="st9" d="M284.4,251.3c-0.1-2,1.5-3.7,3.5-3.8c2-0.1,3.7,1.5,3.8,3.5c0.1,2-1.5,3.7-3.5,3.8c0,0-0.1,0-0.1,0
		c-1.9,0.1-3.5-1.4-3.6-3.3C284.4,251.5,284.4,251.4,284.4,251.3z M290.1,251.3c-0.1-1.1-1-1.9-2.1-1.8c-1.1,0.1-1.9,1-1.8,2.1
		c0.1,1,0.9,1.8,2,1.8c1.1,0,2-0.9,2-2C290.1,251.4,290.1,251.3,290.1,251.3L290.1,251.3z"/>
	<path class="st9" d="M297.2,247.8v1.5c-0.1,0-0.2,0-0.4,0c-1-0.1-1.9,0.7-2,1.7c0,0.1,0,0.3,0,0.4v3.3h-1.6v-6.9h1.5v1
		C295.3,248.1,296.3,247.7,297.2,247.8z"/>
	<path class="st17" d="M359.7,239.1h-21.1c-2.8,0-5,2.2-5,5v10.3c0,2.8,2.2,5,5,5c0,0,0,0,0,0h5.5l4.2,9.5l5.9-9.5h5.5
		c2.8,0,5-2.2,5-5V244C364.7,241.3,362.5,239.1,359.7,239.1z"/>
	<path class="st9" d="M346.5,246.7h5.9v1.3h-5.9V246.7z M346.5,249.8h5.9v1.3h-5.9V249.8z"/>
	<path class="st17" d="M204.1,227.2H183c-2.8,0-5,2.2-5,5v10.3c0,2.8,2.2,5,5,5h5.5l4.2,9.5l5.9-9.5h5.5c2.8,0,5-2.2,5-5v-10.3
		C209.1,229.4,206.8,227.2,204.1,227.2C204.1,227.2,204.1,227.2,204.1,227.2z"/>
	<path class="st9" d="M188.6,231.4h3.1v1.3h-1.5v9.4h1.5v1.3h-3.1V231.4z"/>
	<path class="st9" d="M195.6,243.5v-1.3h1.4v-9.4h-1.4v-1.3h3.1v12L195.6,243.5z"/>
	<path class="st17" d="M266.8,226.1h-21.1c-2.8,0-5,2.2-5,5v10.3c0,2.8,2.2,5,5,5h5.5l4.2,9.5l5.9-9.5h5.5c2.8,0,5-2.2,5-5v-10.3
		C271.8,228.4,269.5,226.1,266.8,226.1z"/>
	<path class="st9" d="M251.9,236.4c0.5,0.2,0.8,0.5,0.8,1.3v2.4c-0.1,0.5,0.2,0.9,0.7,1c0.1,0,0.2,0,0.3,0h0.3v1.3h-0.6
		c-1,0.2-2-0.6-2.2-1.6c0-0.2,0-0.3,0-0.5v-2.6c0-0.4-0.2-0.6-0.6-0.6h-0.4v-1.3h0.4c0.4,0,0.6-0.2,0.6-0.6v-2.6
		c-0.1-1,0.6-2,1.7-2.1c0.2,0,0.3,0,0.5,0h0.6v1.3h-0.3c-0.5-0.1-0.9,0.2-1,0.7c0,0.1,0,0.2,0,0.3v2.4
		C252.7,235.9,252.4,236.2,251.9,236.4z"/>
	<path class="st9" d="M261.7,235.7v1.3h-0.4c-0.4,0-0.6,0.2-0.6,0.6v2.6c0.1,1-0.6,2-1.7,2.1c-0.2,0-0.3,0-0.5,0h-0.6v-1.3h0.3
		c0.5,0.1,0.9-0.2,1-0.7c0-0.1,0-0.2,0-0.3v-2.4c0-0.8,0.2-1.1,0.7-1.3c-0.5-0.2-0.7-0.5-0.7-1.3v-2.4c0.1-0.5-0.2-0.9-0.7-1
		c-0.1,0-0.2,0-0.3,0h-0.3v-1.3h0.6c1-0.2,2,0.6,2.2,1.6c0,0.2,0,0.3,0,0.5v2.6c0,0.4,0.2,0.6,0.6,0.6L261.7,235.7z"/>
	<path class="st17" d="M328.8,224.1h-21.1c-2.8,0-5,2.2-5,5v10.3c0,2.8,2.2,5,5,5h5.5l4.2,9.5l5.9-9.5h5.5c2.8,0,5-2.2,5-5V229
		C333.8,226.3,331.6,224.1,328.8,224.1z"/>
	<path class="st9" d="M317.5,231.7c-0.1-0.6,0.4-1.1,1-1.2c0.6-0.1,1.1,0.4,1.2,1c0,0.1,0,0.1,0,0.2c0.1,0.6-0.4,1.1-1,1.2
		c-0.6,0.1-1.1-0.4-1.2-1C317.4,231.8,317.4,231.7,317.5,231.7z M319.6,236.6c0,0.4-0.1,0.8-0.3,1.1l-0.7,1.8h-1l0.5-2
		c-0.4-0.2-0.6-0.5-0.6-0.9c0-0.6,0.5-1,1-1C319.1,235.5,319.6,235.9,319.6,236.6L319.6,236.6z"/>
	<path class="st17" d="M246.4,403.5h21.1c2.8,0,5-2.2,5-5v-10.2c0-2.8-2.2-5-5-5h-5.5l-1.6-9.5l-8.5,9.5h-5.5c-2.8,0-5,2.2-5,5v10.3
		C241.4,401.3,243.6,403.5,246.4,403.5z"/>
	<path class="st9" d="M253.8,391.3l-4.4,1.7l4.4,1.6v1.4l-5.9-2.3v-1.4l5.9-2.3L253.8,391.3z"/>
	<path class="st9" d="M258.5,386.6h1.4l-4.2,12.1h-1.4L258.5,386.6z"/>
	<path class="st9" d="M266.1,392.3v1.4l-5.9,2.3v-1.3l4.4-1.6l-4.4-1.7V390L266.1,392.3z"/>
	<path class="st17" d="M112.2,328.8h21.1c2.7,0,5-2.2,5-5v-10.3c0-2.8-2.2-5-5-5h-5.5l1.2-9.5l-11.3,9.5h-5.5c-2.8,0-5,2.2-5,5v10.3
		C107.3,326.5,109.5,328.8,112.2,328.8z"/>
	<path class="st9" d="M118.5,322.2c0-0.6,0.4-1,1-1s1,0.4,1,1s-0.4,1-1,1S118.5,322.8,118.5,322.2z M118.6,314.2h1.9l-0.3,6h-1.3
		L118.6,314.2z"/>
	<path class="st9" d="M122.1,316.5h5.9v1.3h-5.9V316.5z M122.1,319.6h5.9v1.3h-5.9V319.6z"/>
</g>
<g id="freepik--Mouse--inject-18">
	<path class="st8" d="M450,317.1c0,4-0.3,7.9-1,11.9c-2.9,17.3-12,29.9-22.8,29.9c-1,0-1.9-0.1-2.9-0.3
		c-11.8-2.5-20.9-20.1-20.9-41.5c0-23.1,10.6-31.2,23.7-31.2S450,294,450,317.1z"/>
	<g>
		<defs>
			<path id="SVGID_00000170250421720143611730000000626805270811280004_" d="M450,317.1c0,4-0.3,7.9-1,11.9
				c-2.9,17.3-12,29.9-22.8,29.9c-1,0-1.9-0.1-2.9-0.3c-11.8-2.5-20.9-20.1-20.9-41.5c0-23.1,10.6-31.2,23.7-31.2S450,294,450,317.1
				z"/>
		</defs>
		<clipPath id="SVGID_00000142146184894295186270000011850301475760749498_">
			<use xlink:href="#SVGID_00000170250421720143611730000000626805270811280004_"  style="overflow:visible;"/>
		</clipPath>
		<g style="clip-path:url(#SVGID_00000142146184894295186270000011850301475760749498_);">
			<path class="st1" d="M441.4,317.4c0.9,12.4-1.2,24.8-4.8,36.7c8.9-7.3,13-18.9,16.8-29.8c2.7-8,5.4-16.1,4.9-24.5
				s-5-17.1-12.8-20c-3.9-1.4-8.2-1.4-12.1,0.2c-6.6,2.6-3,4.8-0.2,9.5C438,298,440.8,307.6,441.4,317.4z"/>
			<path class="st11" d="M441.4,317.4c0.9,12.4-1.2,24.8-4.8,36.7c8.9-7.3,13-18.9,16.8-29.8c2.7-8,5.4-16.1,4.9-24.5
				s-5-17.1-12.8-20c-3.9-1.4-8.2-1.4-12.1,0.2c-6.6,2.6-3,4.8-0.2,9.5C438,298,440.8,307.6,441.4,317.4z"/>
		</g>
	</g>
	<path class="st14" d="M450,317.1c0,4-0.3,7.9-1,11.9c-2.9,17.3-12,29.9-22.8,29.9c-1,0-1.9-0.1-2.9-0.3
		c-11.8-2.5-20.9-20.1-20.9-41.5c0-23.1,10.6-31.2,23.7-31.2S450,294,450,317.1z"/>
	<path class="st4" d="M439,338.4c-1.6,5.3-4.2,10.3-7.8,14.6"/>
	<path class="st14" d="M439.8,335.5c-0.1,0.6-0.3,1.1-0.4,1.7"/>
	<path class="st4" d="M439.7,317.1c1.3,5.3,1.4,10.9,0.5,16.3"/>
	<path class="st14" d="M402.6,317.1c0,0,27-10.7,47.5,0"/>
	<path class="st4" d="M426.3,285.9c0,0,2.7,10,3,26.3"/>
	<path class="st20" d="M430.1,298c0.3,3.1-0.2,5.8-1.2,5.9s-2.1-2.2-2.5-5.3s0.2-5.8,1.2-5.9S429.7,294.9,430.1,298z"/>
	<path class="st14" d="M415.7,366.9H384c-3.9,0-7.2-2.9-7.7-6.7c-0.1-0.4-0.1-0.7-0.1-1.1v-74.6c0-0.4,0-0.7,0.1-1.1
		c0.5-3.8,3.8-6.7,7.7-6.7h89.7c1.3,0,2.6,0.4,3.7,1"/>
</g>
</svg>
